Pacifico.ufo
<glyph name="exclam" format="1">
  <advance width="1011"/>
  <unicode hex="0021"/>
  <outline>
    <contour>
      <point x="638" y="191" type="curve" smooth="yes"/>
      <point x="638" y="81"/>
      <point x="573" y="-2"/>
      <point x="457" y="-2" type="curve" smooth="yes"/>
      <point x="351" y="-2"/>
      <point x="293" y="55"/>
      <point x="293" y="162" type="curve" smooth="yes"/>
      <point x="293" y="277"/>
      <point x="359" y="353"/>
      <point x="476" y="353" type="curve" smooth="yes"/>
      <point x="580" y="353"/>
      <point x="638" y="295"/>
    </contour>
    <contour>
      <point x="927.584" y="1862.01" type="curve" smooth="yes"/>
      <point x="1005.55" y="1862.01"/>
      <point x="1050.53" y="1821.23"/>
      <point x="1050.53" y="1761.99" type="curve" smooth="yes"/>
      <point x="1050.53" y="1683.06"/>
      <point x="988.794" y="1579.88"/>
      <point x="974" y="1540" type="curve" smooth="yes"/>
      <point x="595" y="532" type="line" smooth="yes"/>
      <point x="585.31" y="507.2"/>
      <point x="553.595" y="492"/>
      <point x="521" y="492" type="curve" smooth="yes"/>
      <point x="496" y="492"/>
      <point x="475" y="504.857"/>
      <point x="475" y="537" type="curve" smooth="yes"/>
      <point x="475" y="540"/>
      <point x="475.341" y="545.126"/>
      <point x="477" y="552" type="curve" smooth="yes"/>
      <point x="755" y="1704" type="line" smooth="yes"/>
      <point x="775.632" y="1789.97"/>
      <point x="835.83" y="1862.01"/>
    </contour>
  </outline>
</glyph>
<glyph name="quotesingle" format="1">
  <advance width="524"/>
  <unicode hex="0027"/>
  <outline>
    <contour>
      <point x="434.229" y="1861.13" type="curve" smooth="yes"/>
      <point x="538.833" y="1861.13"/>
      <point x="576.468" y="1815.23"/>
      <point x="576.468" y="1748.83" type="curve" smooth="yes"/>
      <point x="576.468" y="1576.32"/>
      <point x="346.337" y="1279.17"/>
      <point x="305.937" y="1218.92" type="curve"/>
      <point x="248.829" y="1128.7"/>
      <point x="241.976" y="1108"/>
      <point x="175.731" y="1108" type="curve" smooth="yes"/>
      <point x="163.578" y="1108"/>
      <point x="117.666" y="1135.04"/>
      <point x="117.666" y="1169.69" type="curve" smooth="yes"/>
      <point x="117.666" y="1187.84"/>
      <point x="120.795" y="1209.2"/>
      <point x="127.947" y="1228.42" type="curve"/>
      <point x="194.213" y="1362.5"/>
      <point x="301.74" y="1861.13"/>
    </contour>
  </outline>
</glyph>
<glyph name="zero" format="1">
  <advance width="1203"/>
  <unicode hex="0030"/>
  <outline>
    <contour>
      <point x="381.7" y="504.6" type="curve" smooth="yes"/>
      <point x="381.7" y="385.8"/>
      <point x="396" y="188.9"/>
      <point x="514.8" y="188.9" type="curve" smooth="yes"/>
      <point x="754.6" y="188.9"/>
      <point x="852.5" y="725.7"/>
      <point x="852.5" y="939.1" type="curve" smooth="yes"/>
      <point x="852.5" y="1057.9"/>
      <point x="831.6" y="1229.5"/>
      <point x="697.4" y="1229.5" type="curve" smooth="yes"/>
      <point x="458.7" y="1229.5"/>
      <point x="381.7" y="723.5"/>
    </contour>
    <contour>
      <point x="702.9" y="1447.3" type="curve" smooth="yes"/>
      <point x="1027.4" y="1447.3"/>
      <point x="1170.4" y="1209.7"/>
      <point x="1170.4" y="901.7" type="curve" smooth="yes"/>
      <point x="1170.4" y="465"/>
      <point x="935" y="-19"/>
      <point x="491.7" y="-19" type="curve" smooth="yes"/>
      <point x="176" y="-19"/>
      <point x="44" y="251.6"/>
      <point x="44" y="551.9" type="curve" smooth="yes"/>
      <point x="44" y="986.4"/>
      <point x="262.9" y="1447.3"/>
    </contour>
  </outline>
</glyph>
<glyph name="four" format="1">
  <advance width="927"/>
  <unicode hex="0034"/>
  <outline>
    <contour>
      <point x="785" y="-28" type="curve" smooth="yes"/>
      <point x="785" y="-37"/>
      <point x="781" y="-38"/>
      <point x="770" y="-38" type="curve" smooth="yes"/>
      <point x="714" y="-38"/>
      <point x="652" y="-45"/>
      <point x="597" y="-45" type="curve" smooth="yes"/>
      <point x="508" y="-45"/>
      <point x="466" y="-18"/>
      <point x="466" y="71" type="curve" smooth="yes"/>
      <point x="466" y="140"/>
      <point x="485" y="210"/>
      <point x="501" y="273" type="curve"/>
      <point x="347" y="273"/>
      <point x="259" y="192"/>
      <point x="120" y="192" type="curve" smooth="yes"/>
      <point x="96" y="192"/>
      <point x="86" y="212"/>
      <point x="86" y="237" type="curve" smooth="yes"/>
      <point x="86" y="287"/>
      <point x="119" y="335"/>
      <point x="144" y="372" type="curve"/>
      <point x="218" y="565"/>
      <point x="262" y="764"/>
      <point x="313" y="992" type="curve" smooth="yes"/>
      <point x="325" y="1044"/>
      <point x="430" y="1052"/>
      <point x="499" y="1052" type="curve" smooth="yes"/>
      <point x="535" y="1052"/>
      <point x="622" y="1050"/>
      <point x="622" y="1019" type="curve" smooth="yes"/>
      <point x="622" y="779"/>
      <point x="497" y="587"/>
      <point x="411" y="394" type="curve"/>
      <point x="454" y="392"/>
      <point x="483" y="391"/>
      <point x="522" y="391" type="curve" smooth="yes"/>
      <point x="535" y="391" type="line"/>
      <point x="560" y="472"/>
      <point x="590" y="555"/>
      <point x="612" y="633" type="curve" smooth="yes"/>
      <point x="628" y="691"/>
      <point x="686" y="730"/>
      <point x="756" y="730" type="curve" smooth="yes"/>
      <point x="807" y="730"/>
      <point x="836" y="718"/>
      <point x="836" y="674" type="curve" smooth="yes"/>
      <point x="836" y="583"/>
      <point x="785" y="493"/>
      <point x="759" y="414" type="curve"/>
      <point x="812" y="423"/>
      <point x="865" y="437"/>
      <point x="917" y="437" type="curve" smooth="yes"/>
      <point x="936" y="437"/>
      <point x="941" y="418"/>
      <point x="941" y="397" type="curve" smooth="yes"/>
      <point x="941" y="341"/>
      <point x="928" y="264"/>
      <point x="881" y="264" type="curve" smooth="yes"/>
      <point x="826" y="264"/>
      <point x="771" y="267"/>
      <point x="715" y="269" type="curve"/>
      <point x="706" y="231"/>
      <point x="696" y="190"/>
      <point x="693" y="149" type="curve"/>
      <point x="693" y="130" type="line" smooth="yes"/>
      <point x="693" y="65"/>
      <point x="785" y="28"/>
    </contour>
  </outline>
</glyph>
<glyph name="five" format="1">
  <advance width="1157"/>
  <unicode hex="0035"/>
  <outline>
    <contour>
      <point x="489.247" y="-22" type="curve" smooth="yes"/>
      <point x="290.915" y="-22"/>
      <point x="70.1884" y="119.082"/>
      <point x="70.1884" y="408.862" type="curve" smooth="yes"/>
      <point x="70.1884" y="484.16"/>
      <point x="121.648" y="539"/>
      <point x="239.476" y="539" type="curve" smooth="yes"/>
      <point x="276.557" y="539"/>
      <point x="368.777" y="510.132"/>
      <point x="368.777" y="459.002" type="curve" smooth="yes"/>
      <point x="368.777" y="414.455"/>
      <point x="299.698" y="412.769"/>
      <point x="299.698" y="317.052" type="curve" smooth="yes"/>
      <point x="299.698" y="198.953"/>
      <point x="374.044" y="146.96"/>
      <point x="459.659" y="146.96" type="curve" smooth="yes"/>
      <point x="575.863" y="146.96"/>
      <point x="712.827" y="242.743"/>
      <point x="712.827" y="399.019" type="curve" smooth="yes"/>
      <point x="712.827" y="622.344"/>
      <point x="560.141" y="663.34"/>
      <point x="342.637" y="690" type="curve" smooth="yes"/>
      <point x="257.208" y="700.471"/>
      <point x="237.78" y="719.276"/>
      <point x="237.78" y="839.563" type="curve" smooth="yes"/>
      <point x="237.78" y="872.067"/>
      <point x="236.943" y="915.963"/>
      <point x="236.943" y="964.897" type="curve" smooth="yes"/>
      <point x="236.943" y="1144.88"/>
      <point x="248.264" y="1393"/>
      <point x="354.193" y="1393" type="curve" smooth="yes"/>
      <point x="388.193" y="1393" type="line" smooth="yes"/>
      <point x="537.284" y="1393"/>
      <point x="643.262" y="1345"/>
      <point x="794.837" y="1345" type="curve" smooth="yes"/>
      <point x="861.837" y="1345"/>
      <point x="964.166" y="1364"/>
      <point x="986.543" y="1398" type="curve" smooth="yes"/>
      <point x="987.753" y="1401"/>
      <point x="992.753" y="1401"/>
      <point x="1002.75" y="1401" type="curve" smooth="yes"/>
      <point x="1069.28" y="1401"/>
      <point x="1086.85" y="1335.53"/>
      <point x="1086.85" y="1262.91" type="curve" smooth="yes"/>
      <point x="1086.85" y="1136.93"/>
      <point x="888.703" y="1109.86"/>
      <point x="755.698" y="1087" type="curve"/>
      <point x="626.936" y="1097"/>
      <point x="541.488" y="1128"/>
      <point x="418.565" y="1128" type="curve" smooth="yes"/>
      <point x="404.565" y="1128"/>
      <point x="392.425" y="1126"/>
      <point x="380.355" y="1125" type="curve"/>
      <point x="387.251" y="1042.31"/>
      <point x="391.797" y="953.956"/>
      <point x="402.552" y="869" type="curve"/>
      <point x="456.901" y="874"/>
      <point x="508.111" y="877"/>
      <point x="556.111" y="877" type="curve" smooth="yes"/>
      <point x="860.265" y="877"/>
      <point x="1029.26" y="762.625"/>
      <point x="1029.26" y="465.381" type="curve" smooth="yes"/>
      <point x="1029.26" y="155.649"/>
      <point x="769.38" y="-22"/>
    </contour>
  </outline>
</glyph>
<glyph name="six" format="1">
  <advance width="1166"/>
  <unicode hex="0036"/>
  <outline>
    <contour>
      <point x="622.785" y="717" type="curve" smooth="yes"/>
      <point x="431.061" y="717"/>
      <point x="366.291" y="601.697"/>
      <point x="366.291" y="425" type="curve" smooth="yes"/>
      <point x="366.291" y="287.706"/>
      <point x="414.442" y="156"/>
      <point x="556.151" y="156" type="curve" smooth="yes"/>
      <point x="722.319" y="156"/>
      <point x="818" y="351.931"/>
      <point x="818" y="516" type="curve" smooth="yes"/>
      <point x="818" y="642.482"/>
      <point x="752.728" y="717"/>
    </contour>
    <contour>
      <point x="769" y="895" type="curve" smooth="yes"/>
      <point x="957.498" y="895"/>
      <point x="1112.88" y="738.158"/>
      <point x="1112.88" y="496.775" type="curve" smooth="yes"/>
      <point x="1112.88" y="183.449"/>
      <point x="859.641" y="-31"/>
      <point x="550.675" y="-31" type="curve" smooth="yes"/>
      <point x="262.845" y="-31"/>
      <point x="82" y="156.127"/>
      <point x="82" y="474" type="curve" smooth="yes"/>
      <point x="82" y="992.933"/>
      <point x="481.092" y="1326.63"/>
      <point x="832.165" y="1496.32" type="curve" smooth="yes"/>
      <point x="861.689" y="1510.59"/>
      <point x="886.738" y="1521"/>
      <point x="921" y="1521" type="curve" smooth="yes"/>
      <point x="984.107" y="1521"/>
      <point x="1028" y="1487.16"/>
      <point x="1028" y="1436" type="curve" smooth="yes"/>
      <point x="1028" y="1386.89"/>
      <point x="998.827" y="1352.38"/>
      <point x="958.187" y="1327.8" type="curve" smooth="yes"/>
      <point x="734.697" y="1196.73"/>
      <point x="572.675" y="1019.08"/>
      <point x="455.565" y="785.773" type="curve"/>
      <point x="532.632" y="841.472"/>
      <point x="627.1" y="895"/>
    </contour>
  </outline>
</glyph>
<glyph name="seven" format="1">
  <advance width="926"/>
  <unicode hex="0037"/>
  <outline>
    <contour>
      <point x="335" y="1159" type="line" smooth="yes"/>
      <point x="261.637" y="1159"/>
      <point x="290.301" y="1024.08"/>
      <point x="213.523" y="1024.08" type="curve" smooth="yes"/>
      <point x="171.274" y="1024.08"/>
      <point x="146" y="1082.76"/>
      <point x="146" y="1155" type="curve" smooth="yes"/>
      <point x="146" y="1273.3"/>
      <point x="191.179" y="1379"/>
      <point x="272" y="1379" type="curve" smooth="yes"/>
      <point x="464.368" y="1379"/>
      <point x="573.427" y="1333"/>
      <point x="787" y="1333" type="curve" smooth="yes"/>
      <point x="818" y="1333" type="line" smooth="yes"/>
      <point x="870" y="1333"/>
      <point x="907" y="1343"/>
      <point x="944" y="1343" type="curve" smooth="yes"/>
      <point x="994" y="1343"/>
      <point x="1010" y="1304"/>
      <point x="1010" y="1252" type="curve" smooth="yes"/>
      <point x="1010" y="1181.48"/>
      <point x="955.008" y="1159.05"/>
      <point x="913" y="1131" type="curve"/>
      <point x="704.897" y="799.953"/>
      <point x="538.28" y="445.854"/>
      <point x="400" y="26" type="curve" smooth="yes"/>
      <point x="379.206" y="-37.1372"/>
      <point x="311" y="-56"/>
      <point x="231" y="-56" type="curve" smooth="yes"/>
      <point x="168" y="-56"/>
      <point x="107" y="-18"/>
      <point x="107" y="49" type="curve" smooth="yes"/>
      <point x="107" y="56" type="line" smooth="yes"/>
      <point x="107" y="191"/>
      <point x="192" y="336"/>
      <point x="248" y="439" type="curve"/>
      <point x="369.117" y="688.16"/>
      <point x="516.422" y="926.328"/>
      <point x="667" y="1159" type="curve"/>
    </contour>
  </outline>
</glyph>
<glyph name="eight" format="1">
  <advance width="967"/>
  <unicode hex="0038"/>
  <outline>
    <contour>
      <point x="290" y="328.4" type="curve" smooth="yes"/>
      <point x="290" y="256.062"/>
      <point x="331.631" y="190.4"/>
      <point x="399.709" y="190.4" type="curve" smooth="yes"/>
      <point x="512.496" y="190.4"/>
      <point x="579.498" y="275.312"/>
      <point x="579.498" y="390" type="curve" smooth="yes"/>
      <point x="579.498" y="489.332"/>
      <point x="533.037" y="551.551"/>
      <point x="488.596" y="605.804" type="curve"/>
      <point x="390.755" y="553.475"/>
      <point x="290" y="486.111"/>
    </contour>
    <contour>
      <point x="511.016" y="872.381" type="curve"/>
      <point x="591.633" y="917.209"/>
      <point x="704.654" y="1020.9"/>
      <point x="704.654" y="1125.1" type="curve" smooth="yes"/>
      <point x="704.654" y="1223.55"/>
      <point x="647.063" y="1271.9"/>
      <point x="576.731" y="1271.9" type="curve" smooth="yes"/>
      <point x="485.508" y="1271.9"/>
      <point x="419.492" y="1198.49"/>
      <point x="419.492" y="1081.1" type="curve" smooth="yes"/>
      <point x="419.492" y="994.785"/>
      <point x="461.741" y="919.472"/>
    </contour>
    <contour>
      <point x="51.2002" y="305.306" type="curve" smooth="yes"/>
      <point x="51.2002" y="559.767"/>
      <point x="204.999" y="677.729"/>
      <point x="347.722" y="775.018" type="curve"/>
      <point x="250.866" y="839.361"/>
      <point x="178.8" y="941.829"/>
      <point x="178.8" y="1082.51" type="curve" smooth="yes"/>
      <point x="178.8" y="1332.2"/>
      <point x="399.371" y="1450.2"/>
      <point x="624.086" y="1450.2" type="curve" smooth="yes"/>
      <point x="785.412" y="1450.2"/>
      <point x="952.3" y="1381.96"/>
      <point x="952.3" y="1191.76" type="curve" smooth="yes"/>
      <point x="952.3" y="933.824"/>
      <point x="796.089" y="820.72"/>
      <point x="625.391" y="734.742" type="curve"/>
      <point x="735.048" y="644.494"/>
      <point x="874.2" y="533.73"/>
      <point x="874.2" y="331.527" type="curve" smooth="yes"/>
      <point x="874.2" y="105.05"/>
      <point x="682.046" y="-16.5"/>
      <point x="447.065" y="-16.5" type="curve" smooth="yes"/>
      <point x="218.836" y="-16.5"/>
      <point x="51.2002" y="75.6084"/>
    </contour>
  </outline>
</glyph>
<glyph name="B" format="1">
  <advance width="1522"/>
  <unicode hex="0042"/>
  <outline>
    <contour>
      <point x="919" y="967" type="curve" smooth="yes"/>
      <point x="1130" y="967"/>
      <point x="1338" y="1058"/>
      <point x="1338" y="1262" type="curve" smooth="yes"/>
      <point x="1338" y="1472"/>
      <point x="956" y="1502"/>
      <point x="744" y="1502" type="curve" smooth="yes"/>
      <point x="510" y="1502"/>
      <point x="243" y="1469"/>
      <point x="150" y="1330" type="curve" smooth="yes"/>
      <point x="95" y="1248"/>
      <point x="34" y="1094"/>
      <point x="-49" y="1094" type="curve" smooth="yes"/>
      <point x="-78" y="1094"/>
      <point x="-93" y="1128"/>
      <point x="-93" y="1195" type="curve" smooth="yes"/>
      <point x="-93" y="1592"/>
      <point x="316" y="1736"/>
      <point x="789" y="1736" type="curve" smooth="yes"/>
      <point x="1098" y="1736"/>
      <point x="1594" y="1615"/>
      <point x="1594" y="1270" type="curve" smooth="yes"/>
      <point x="1594" y="973"/>
      <point x="1311" y="847"/>
      <point x="1005" y="841" type="curve"/>
      <point x="1246" y="841"/>
      <point x="1402" y="691"/>
      <point x="1402" y="454" type="curve" smooth="yes"/>
      <point x="1402" y="112"/>
      <point x="1130" y="-87"/>
      <point x="786" y="-87" type="curve" smooth="yes"/>
      <point x="575" y="-87"/>
      <point x="385" y="-33"/>
      <point x="225" y="22" type="curve" smooth="yes"/>
      <point x="188" y="35"/>
      <point x="154" y="45"/>
      <point x="154" y="93" type="curve" smooth="yes"/>
      <point x="154" y="590"/>
      <point x="199" y="1061"/>
      <point x="402" y="1359" type="curve"/>
      <point x="449" y="1392"/>
      <point x="492" y="1408"/>
      <point x="531" y="1408" type="curve" smooth="yes"/>
      <point x="580" y="1408"/>
      <point x="620" y="1381"/>
      <point x="653" y="1326" type="curve"/>
      <point x="476" y="1088"/>
      <point x="442" y="674"/>
      <point x="442" y="266" type="curve" smooth="yes"/>
      <point x="442" y="232"/>
      <point x="443" y="184"/>
      <point x="463" y="169" type="curve"/>
      <point x="539" y="144"/>
      <point x="636" y="121"/>
      <point x="734" y="121" type="curve" smooth="yes"/>
      <point x="985" y="121"/>
      <point x="1178" y="237"/>
      <point x="1178" y="489" type="curve" smooth="yes"/>
      <point x="1178" y="768"/>
      <point x="818" y="664"/>
      <point x="693" y="820" type="curve" smooth="yes"/>
      <point x="678" y="838"/>
      <point x="671" y="863"/>
      <point x="671" y="892" type="curve" smooth="yes"/>
      <point x="671" y="959"/>
      <point x="696" y="974"/>
      <point x="764" y="974" type="curve" smooth="yes"/>
      <point x="822" y="974"/>
      <point x="862" y="967"/>
    </contour>
  </outline>
</glyph>
<glyph name="C" format="1">
  <advance width="1480"/>
  <unicode hex="0043"/>
  <outline>
    <contour>
      <point x="384" y="502" type="curve" smooth="yes"/>
      <point x="384" y="231"/>
      <point x="500" y="64"/>
      <point x="750" y="64" type="curve" smooth="yes"/>
      <point x="1200" y="64"/>
      <point x="1482" y="353"/>
      <point x="1726" y="523" type="curve"/>
      <point x="1766" y="338" type="line"/>
      <point x="1535" y="104"/>
      <point x="1142" y="-192"/>
      <point x="685" y="-192" type="curve" smooth="yes"/>
      <point x="315" y="-192"/>
      <point x="96" y="111"/>
      <point x="96" y="482" type="curve" smooth="yes"/>
      <point x="96" y="1096"/>
      <point x="515" y="1792"/>
      <point x="1123" y="1792" type="curve" smooth="yes"/>
      <point x="1371" y="1792"/>
      <point x="1536" y="1617"/>
      <point x="1536" y="1363" type="curve" smooth="yes"/>
      <point x="1536" y="1049"/>
      <point x="1268" y="736"/>
      <point x="961" y="736" type="curve" smooth="yes"/>
      <point x="835" y="736"/>
      <point x="775" y="758"/>
      <point x="775" y="870" type="curve" smooth="yes"/>
      <point x="775" y="949"/>
      <point x="844" y="960"/>
      <point x="945" y="960" type="curve" smooth="yes"/>
      <point x="1150" y="960"/>
      <point x="1312" y="1134"/>
      <point x="1312" y="1344" type="curve" smooth="yes"/>
      <point x="1312" y="1486"/>
      <point x="1232" y="1568"/>
      <point x="1088" y="1568" type="curve" smooth="yes"/>
      <point x="651" y="1568"/>
      <point x="384" y="914"/>
    </contour>
  </outline>
</glyph>
<glyph name="N" format="1">
  <advance width="1693"/>
  <unicode hex="004E"/>
  <outline>
    <contour>
      <point x="1212" y="1327" type="curve" smooth="yes"/>
      <point x="1212" y="1394.07"/>
      <point x="1199.13" y="1474.38"/>
      <point x="1121.56" y="1474.38" type="curve" smooth="yes"/>
      <point x="851.359" y="1474.38"/>
      <point x="570.562" y="359.676"/>
      <point x="473" y="85" type="curve" smooth="yes"/>
      <point x="451" y="23"/>
      <point x="403" y="-14"/>
      <point x="327" y="-14" type="curve" smooth="yes"/>
      <point x="249.936" y="-14"/>
      <point x="189.493" y="53.0958"/>
      <point x="189.493" y="127.798" type="curve" smooth="yes"/>
      <point x="189.493" y="136.461"/>
      <point x="190.306" y="145.226"/>
      <point x="192" y="154" type="curve" smooth="yes"/>
      <point x="275.075" y="584.327"/>
      <point x="358.117" y="929.928"/>
      <point x="390" y="1391" type="curve"/>
      <point x="390" y="1414" type="line" smooth="yes"/>
      <point x="390" y="1442"/>
      <point x="383" y="1471"/>
      <point x="354" y="1471" type="curve" smooth="yes"/>
      <point x="291" y="1471"/>
      <point x="237" y="1377"/>
      <point x="212" y="1339" type="curve" smooth="yes"/>
      <point x="181" y="1292"/>
      <point x="145" y="1196"/>
      <point x="79" y="1196" type="curve" smooth="yes"/>
      <point x="44" y="1196"/>
      <point x="-2" y="1241"/>
      <point x="-2" y="1275" type="curve" smooth="yes"/>
      <point x="-2" y="1456"/>
      <point x="183" y="1696"/>
      <point x="360" y="1696" type="curve" smooth="yes"/>
      <point x="543" y="1696"/>
      <point x="614" y="1585"/>
      <point x="614" y="1402" type="curve" smooth="yes"/>
      <point x="614" y="1174"/>
      <point x="530.969" y="734.357"/>
      <point x="537" y="731" type="curve"/>
      <point x="648.066" y="1102.85"/>
      <point x="783.235" y="1728"/>
      <point x="1223" y="1728" type="curve" smooth="yes"/>
      <point x="1398.12" y="1728"/>
      <point x="1473" y="1578"/>
      <point x="1473" y="1427" type="curve" smooth="yes"/>
      <point x="1473" y="1088"/>
      <point x="1312" y="815"/>
      <point x="1312" y="467" type="curve" smooth="yes"/>
      <point x="1312" y="339"/>
      <point x="1332" y="191"/>
      <point x="1460" y="191" type="curve" smooth="yes"/>
      <point x="1650" y="191"/>
      <point x="1813" y="388"/>
      <point x="1902" y="494" type="curve" smooth="yes"/>
      <point x="1916" y="510"/>
      <point x="1923" y="519"/>
      <point x="1923" y="520" type="curve" smooth="yes"/>
      <point x="1983" y="303" type="line"/>
      <point x="1865" y="144"/>
      <point x="1662" y="-41"/>
      <point x="1395" y="-41" type="curve" smooth="yes"/>
      <point x="1153.75" y="-41"/>
      <point x="1040.88" y="168.224"/>
      <point x="1040.88" y="413.113" type="curve" smooth="yes"/>
      <point x="1040.88" y="726.11"/>
      <point x="1149.25" y="956.404"/>
      <point x="1200" y="1208" type="curve" smooth="yes"/>
      <point x="1208" y="1249"/>
      <point x="1212" y="1289"/>
    </contour>
  </outline>
</glyph>
<glyph name="O" format="1">
  <advance width="1699"/>
  <unicode hex="004F"/>
  <outline>
    <contour>
      <point x="1435" y="1036" type="curve" smooth="yes"/>
      <point x="1435" y="1297.31"/>
      <point x="1332.92" y="1508.54"/>
      <point x="1068.35" y="1508.54" type="curve" smooth="yes"/>
      <point x="620.636" y="1508.54"/>
      <point x="411" y="968.629"/>
      <point x="411" y="587" type="curve" smooth="yes"/>
      <point x="411" y="356.476"/>
      <point x="543" y="159"/>
      <point x="825" y="159" type="curve" smooth="yes"/>
      <point x="1266" y="159"/>
      <point x="1435" y="681.891"/>
    </contour>
    <contour>
      <point x="153.713" y="589.495" type="curve" smooth="yes"/>
      <point x="153.713" y="1172.78"/>
      <point x="493.475" y="1730"/>
      <point x="1054" y="1730" type="curve" smooth="yes"/>
      <point x="1475" y="1730"/>
      <point x="1691" y="1420"/>
      <point x="1691" y="997" type="curve" smooth="yes"/>
      <point x="1691" y="494.981"/>
      <point x="1389.65" y="-66"/>
      <point x="801" y="-66" type="curve" smooth="yes"/>
      <point x="376.608" y="-66"/>
      <point x="153.713" y="230.898"/>
    </contour>
  </outline>
</glyph>
<glyph name="S" format="1">
  <advance width="1558"/>
  <unicode hex="0053"/>
  <outline>
    <contour>
      <point x="369" y="366" type="curve" smooth="yes"/>
      <point x="369" y="155.035"/>
      <point x="572.354" y="85.2844"/>
      <point x="784.461" y="85.2844" type="curve" smooth="yes"/>
      <point x="1007.48" y="85.2844"/>
      <point x="1236" y="180.188"/>
      <point x="1236" y="366" type="curve" smooth="yes"/>
      <point x="1236" y="606.79"/>
      <point x="940.756" y="705.2"/>
      <point x="781" y="790" type="curve"/>
      <point x="597.067" y="891.097"/>
      <point x="336" y="1014.54"/>
      <point x="336" y="1304" type="curve" smooth="yes"/>
      <point x="336" y="1621"/>
      <point x="660" y="1760"/>
      <point x="988" y="1760" type="curve" smooth="yes"/>
      <point x="1265.94" y="1760"/>
      <point x="1542" y="1603.93"/>
      <point x="1542" y="1330" type="curve" smooth="yes"/>
      <point x="1542" y="1205.45"/>
      <point x="1451.29" y="1034"/>
      <point x="1329" y="1034" type="curve" smooth="yes"/>
      <point x="1287" y="1034"/>
      <point x="1261" y="1060"/>
      <point x="1261" y="1104" type="curve" smooth="yes"/>
      <point x="1261" y="1190.37"/>
      <point x="1317" y="1240.05"/>
      <point x="1317" y="1331" type="curve" smooth="yes"/>
      <point x="1317" y="1507.21"/>
      <point x="1120" y="1551"/>
      <point x="948" y="1551" type="curve" smooth="yes"/>
      <point x="779" y="1551"/>
      <point x="593" y="1485"/>
      <point x="593" y="1326" type="curve" smooth="yes"/>
      <point x="593" y="1109"/>
      <point x="891" y="1020"/>
      <point x="1042" y="944" type="curve"/>
      <point x="1240" y="836.525"/>
      <point x="1492" y="701.911"/>
      <point x="1492" y="386" type="curve" smooth="yes"/>
      <point x="1492" y="32.625"/>
      <point x="1140" y="-128"/>
      <point x="770" y="-128" type="curve" smooth="yes"/>
      <point x="428" y="-128"/>
      <point x="114" y="25"/>
      <point x="114" y="365" type="curve" smooth="yes"/>
      <point x="114" y="497"/>
      <point x="194" y="624"/>
      <point x="319" y="624" type="curve" smooth="yes"/>
      <point x="364" y="624"/>
      <point x="394" y="599"/>
      <point x="394" y="552" type="curve" smooth="yes"/>
      <point x="394" y="488"/>
      <point x="369" y="438"/>
    </contour>
  </outline>
</glyph>
<glyph name="T" format="1">
  <advance width="1366"/>
  <unicode hex="0054"/>
  <outline>
    <contour>
      <point x="147" y="1232" type="curve" smooth="yes"/>
      <point x="53" y="1232"/>
      <point x="-14" y="1277"/>
      <point x="-14" y="1360" type="curve" smooth="yes"/>
      <point x="-14" y="1749"/>
      <point x="534" y="1758"/>
      <point x="933" y="1758" type="curve" smooth="yes"/>
      <point x="1251.11" y="1758"/>
      <point x="1545.42" y="1739.59"/>
      <point x="1835" y="1693" type="curve" smooth="yes"/>
      <point x="1887.28" y="1684.59"/>
      <point x="1922" y="1654"/>
      <point x="1922" y="1599" type="curve" smooth="yes"/>
      <point x="1922" y="1541"/>
      <point x="1871" y="1482"/>
      <point x="1812" y="1490" type="curve" smooth="yes"/>
      <point x="1535.67" y="1525"/>
      <point x="1268.44" y="1539"/>
      <point x="983" y="1551" type="curve"/>
      <point x="853.605" y="962.997"/>
      <point x="762.088" y="556.835"/>
      <point x="653" y="82" type="curve" smooth="yes"/>
      <point x="636.359" y="15.6001"/>
      <point x="580.31" y="-74"/>
      <point x="498" y="-74" type="curve" smooth="yes"/>
      <point x="421" y="-74"/>
      <point x="367" y="-39"/>
      <point x="367" y="40" type="curve" smooth="yes"/>
      <point x="367" y="53"/>
      <point x="368.771" y="67.0628"/>
      <point x="373" y="82" type="curve" smooth="yes"/>
      <point x="484.249" y="505.368"/>
      <point x="615.821" y="996.527"/>
      <point x="761" y="1551" type="curve"/>
      <point x="595" y="1538"/>
      <point x="307" y="1534"/>
      <point x="307" y="1360" type="curve" smooth="yes"/>
      <point x="307" y="1277"/>
      <point x="239" y="1232"/>
    </contour>
  </outline>
</glyph>
<glyph name="Y" format="1">
  <advance width="1461"/>
  <unicode hex="0059"/>
  <outline>
    <contour>
      <point x="17.8242" y="1151.21" type="curve" smooth="yes"/>
      <point x="11.4396" y="1151.21"/>
      <point x="-100.685" y="1238.12"/>
      <point x="-100.685" y="1353.49" type="curve" smooth="yes"/>
      <point x="-100.685" y="1497.27"/>
      <point x="65.7164" y="1641.47"/>
      <point x="230.781" y="1641.47" type="curve" smooth="yes"/>
      <point x="662.047" y="1641.47"/>
      <point x="808.229" y="1360.33"/>
      <point x="907" y="1110" type="curve" smooth="yes"/>
      <point x="1023" y="816" type="line"/>
      <point x="1153.94" y="1076.2"/>
      <point x="1273.98" y="1350.99"/>
      <point x="1400" y="1607" type="curve" smooth="yes"/>
      <point x="1416.6" y="1640.72"/>
      <point x="1471" y="1661"/>
      <point x="1522" y="1661" type="curve" smooth="yes"/>
      <point x="1591" y="1661"/>
      <point x="1634" y="1620"/>
      <point x="1634" y="1550" type="curve" smooth="yes"/>
      <point x="1634" y="1463"/>
      <point x="1579.87" y="1392.46"/>
      <point x="1543" y="1310" type="curve" smooth="yes"/>
      <point x="1328.71" y="830.699"/>
      <point x="1068.66" y="269.1"/>
      <point x="717" y="-60" type="curve" smooth="yes"/>
      <point x="651.276" y="-121.508"/>
      <point x="581" y="-163"/>
      <point x="463" y="-163" type="curve" smooth="yes"/>
      <point x="342.813" y="-163"/>
      <point x="166" y="-66"/>
      <point x="166" y="34" type="curve" smooth="yes"/>
      <point x="166" y="92.5527"/>
      <point x="213.036" y="132.101"/>
      <point x="272.51" y="132.101" type="curve" smooth="yes"/>
      <point x="342.403" y="132.101"/>
      <point x="366.993" y="1"/>
      <point x="439" y="1" type="curve" smooth="yes"/>
      <point x="567.972" y="1"/>
      <point x="776.783" y="362.77"/>
      <point x="873" y="597" type="curve"/>
      <point x="752.369" y="842.152"/>
      <point x="502.084" y="1426.54"/>
      <point x="179.54" y="1426.54" type="curve" smooth="yes"/>
      <point x="107.519" y="1426.54"/>
      <point x="61.8799" y="1344.7"/>
      <point x="61.8799" y="1297.45" type="curve" smooth="yes"/>
      <point x="61.8799" y="1288.32"/>
      <point x="63.9443" y="1280.44"/>
      <point x="63.9443" y="1268.29" type="curve" smooth="yes"/>
      <point x="63.9443" y="1222.84"/>
      <point x="51.0622" y="1151.21"/>
    </contour>
  </outline>
</glyph>
<glyph name="underscore" format="1">
  <advance width="1248"/>
  <unicode hex="005F"/>
  <outline>
    <contour>
      <point x="128" y="0" type="line" smooth="yes"/>
      <point x="55" y="0"/>
      <point x="-6" y="34"/>
      <point x="-6" y="108" type="curve" smooth="yes"/>
      <point x="-6" y="218"/>
      <point x="124" y="224"/>
      <point x="236" y="224" type="curve" smooth="yes"/>
      <point x="496" y="224" type="line" smooth="yes"/>
      <point x="609" y="224"/>
      <point x="737" y="225"/>
      <point x="853" y="225" type="curve" smooth="yes"/>
      <point x="1184" y="225" type="line" smooth="yes"/>
      <point x="1233" y="225"/>
      <point x="1266" y="210"/>
      <point x="1266" y="163" type="curve" smooth="yes"/>
      <point x="1266" y="33"/>
      <point x="1156" y="0"/>
      <point x="1020" y="0" type="curve" smooth="yes"/>
    </contour>
  </outline>
</glyph>
<glyph name="d" format="1">
  <advance width="1147"/>
  <unicode hex="0064"/>
  <outline>
    <contour>
      <point x="1025" y="1592" type="curve" smooth="yes"/>
      <point x="1025" y="1640"/>
      <point x="1023" y="1688"/>
      <point x="988" y="1688" type="curve" smooth="yes"/>
      <point x="798" y="1688"/>
      <point x="789" y="939"/>
      <point x="789" y="764" type="curve" smooth="yes"/>
      <point x="789" y="713" type="line"/>
      <point x="896" y="957"/>
      <point x="1025" y="1256"/>
    </contour>
    <contour>
      <point x="833" y="391" type="curve" smooth="yes"/>
      <point x="833" y="294.674"/>
      <point x="851.465" y="206.918"/>
      <point x="949.633" y="206.918" type="curve" smooth="yes"/>
      <point x="1043.7" y="206.918"/>
      <point x="1150.18" y="310.31"/>
      <point x="1212" y="366" type="curve" smooth="yes"/>
      <point x="1243.35" y="389.786"/>
      <point x="1263.93" y="404.669"/>
      <point x="1283.24" y="404.669" type="curve" smooth="yes"/>
      <point x="1318.42" y="404.669"/>
      <point x="1333.94" y="338.888"/>
      <point x="1333.94" y="286.289" type="curve" smooth="yes"/>
      <point x="1333.94" y="257.837"/>
      <point x="1328.59" y="232.789"/>
      <point x="1318" y="223" type="curve" smooth="yes"/>
      <point x="1192.59" y="107.026"/>
      <point x="1043.29" y="1"/>
      <point x="858" y="1" type="curve" smooth="yes"/>
      <point x="745" y="1"/>
      <point x="671" y="90"/>
      <point x="635" y="178" type="curve"/>
      <point x="554" y="99"/>
      <point x="441" y="0"/>
      <point x="289" y="0" type="curve" smooth="yes"/>
      <point x="115" y="0"/>
      <point x="35" y="156"/>
      <point x="35" y="330" type="curve" smooth="yes"/>
      <point x="35" y="640"/>
      <point x="263" y="879"/>
      <point x="545" y="905" type="curve"/>
      <point x="554" y="1299"/>
      <point x="664" y="1719"/>
      <point x="909" y="1880" type="curve" smooth="yes"/>
      <point x="949" y="1906"/>
      <point x="990" y="1920"/>
      <point x="1033" y="1920" type="curve" smooth="yes"/>
      <point x="1171" y="1920"/>
      <point x="1205" y="1767"/>
      <point x="1205" y="1626" type="curve" smooth="yes"/>
      <point x="1205" y="1191"/>
      <point x="996" y="882"/>
      <point x="863" y="564" type="curve" smooth="yes"/>
      <point x="844" y="518"/>
      <point x="833" y="453"/>
    </contour>
    <contour>
      <point x="275" y="308" type="curve" smooth="yes"/>
      <point x="275" y="240"/>
      <point x="296" y="191"/>
      <point x="355" y="191" type="curve" smooth="yes"/>
      <point x="448" y="191"/>
      <point x="520" y="274"/>
      <point x="564" y="329" type="curve"/>
      <point x="560" y="356"/>
      <point x="549" y="756"/>
      <point x="549" y="756" type="curve"/>
      <point x="407" y="687"/>
      <point x="275" y="510"/>
    </contour>
  </outline>
</glyph>
<glyph name="e" format="1">
  <advance width="740"/>
  <unicode hex="0065"/>
  <outline>
    <contour>
      <point x="543" y="678" type="curve" smooth="yes"/>
      <point x="543" y="731"/>
      <point x="518" y="771"/>
      <point x="470" y="771" type="curve" smooth="yes"/>
      <point x="341" y="771"/>
      <point x="294" y="573"/>
      <point x="294" y="437" type="curve"/>
      <point x="374" y="470"/>
      <point x="543" y="558"/>
    </contour>
    <contour>
      <point x="317" y="290" type="curve"/>
      <point x="335" y="231"/>
      <point x="368" y="192"/>
      <point x="442" y="192" type="curve" smooth="yes"/>
      <point x="630" y="192"/>
      <point x="782" y="333"/>
      <point x="879" y="430" type="curve" smooth="yes"/>
      <point x="889" y="439"/>
      <point x="901" y="442"/>
      <point x="913" y="442" type="curve" smooth="yes"/>
      <point x="957" y="442"/>
      <point x="1005" y="389"/>
      <point x="1005" y="341" type="curve" smooth="yes"/>
      <point x="1005" y="323"/>
      <point x="996" y="307"/>
      <point x="981" y="291" type="curve" smooth="yes"/>
      <point x="853" y="156"/>
      <point x="677" y="0"/>
      <point x="426" y="0" type="curve" smooth="yes"/>
      <point x="183" y="0"/>
      <point x="50" y="176"/>
      <point x="50" y="417" type="curve" smooth="yes"/>
      <point x="50" y="687"/>
      <point x="190" y="959"/>
      <point x="458" y="959" type="curve" smooth="yes"/>
      <point x="612" y="959"/>
      <point x="721" y="863"/>
      <point x="721" y="709" type="curve" smooth="yes"/>
      <point x="721" y="486"/>
      <point x="497" y="340"/>
    </contour>
  </outline>
</glyph>
<glyph name="l" format="1">
  <advance width="589"/>
  <unicode hex="006C"/>
  <outline>
    <contour>
      <point x="661" y="1593" type="curve" smooth="yes"/>
      <point x="661" y="1620"/>
      <point x="651" y="1641"/>
      <point x="630" y="1641" type="curve" smooth="yes"/>
      <point x="404" y="1641"/>
      <point x="320" y="975"/>
      <point x="320" y="740" type="curve"/>
      <point x="442" y="955"/>
      <point x="565" y="1198"/>
      <point x="636" y="1460" type="curve" smooth="yes"/>
      <point x="649" y="1508"/>
      <point x="661" y="1552"/>
    </contour>
    <contour>
      <point x="815" y="299" type="curve"/>
      <point x="756.328" y="132.285"/>
      <point x="516.51" y="0"/>
      <point x="329" y="0" type="curve" smooth="yes"/>
      <point x="139" y="0"/>
      <point x="72" y="320"/>
      <point x="72" y="519" type="curve" smooth="yes"/>
      <point x="72" y="998"/>
      <point x="187" y="1476"/>
      <point x="402" y="1748" type="curve" smooth="yes"/>
      <point x="472" y="1837"/>
      <point x="565" y="1920"/>
      <point x="705" y="1920" type="curve" smooth="yes"/>
      <point x="820" y="1920"/>
      <point x="849" y="1810"/>
      <point x="849" y="1694" type="curve" smooth="yes"/>
      <point x="849" y="1215.48"/>
      <point x="568.23" y="841.161"/>
      <point x="348" y="565" type="curve" smooth="yes"/>
      <point x="333" y="546"/>
      <point x="330" y="498"/>
      <point x="330" y="461" type="curve" smooth="yes"/>
      <point x="330" y="367.68"/>
      <point x="342.004" y="213.926"/>
      <point x="439.873" y="213.926" type="curve" smooth="yes"/>
      <point x="534.879" y="213.926"/>
      <point x="653.398" y="333.815"/>
      <point x="724" y="407" type="curve"/>
      <point x="742.421" y="419"/>
      <point x="759.526" y="424"/>
      <point x="774" y="424" type="curve" smooth="yes"/>
      <point x="798.736" y="424"/>
      <point x="816.74" y="372.695"/>
      <point x="816.74" y="324.131" type="curve" smooth="yes"/>
      <point x="816.74" y="315.57"/>
      <point x="816.181" y="307.095"/>
    </contour>
  </outline>
</glyph>
<glyph name="m" format="1">
  <advance width="1312"/>
  <unicode hex="006D"/>
  <outline>
    <contour>
      <point x="820.896" y="872" type="curve" smooth="yes"/>
      <point x="820.896" y="817.108"/>
      <point x="766.484" y="523.869"/>
      <point x="766.168" y="522.16" type="curve"/>
      <point x="785.226" y="501.096" type="line"/>
      <point x="855.3" y="665.355"/>
      <point x="942.529" y="825.108"/>
      <point x="1046.1" y="933.651" type="curve" smooth="yes"/>
      <point x="1063.04" y="951.406"/>
      <point x="1085.92" y="960"/>
      <point x="1112.09" y="960" type="curve" smooth="yes"/>
      <point x="1170.4" y="960"/>
      <point x="1216.69" y="928.705"/>
      <point x="1216.69" y="872" type="curve" smooth="yes"/>
      <point x="1216.69" y="784.953"/>
      <point x="1171.29" y="428.814"/>
      <point x="1171.29" y="317" type="curve" smooth="yes"/>
      <point x="1171.29" y="264.515"/>
      <point x="1171.78" y="194"/>
      <point x="1224.61" y="194" type="curve" smooth="yes"/>
      <point x="1283.51" y="194"/>
      <point x="1373.72" y="284.295"/>
      <point x="1427.55" y="348.096" type="curve" smooth="yes"/>
      <point x="1454.43" y="378.954"/>
      <point x="1472.5" y="390"/>
      <point x="1483" y="390" type="curve" smooth="yes"/>
      <point x="1507.6" y="390"/>
      <point x="1515" y="333.993"/>
      <point x="1515" y="278" type="curve" smooth="yes"/>
      <point x="1515" y="253.062"/>
      <point x="1514.17" y="229.915"/>
      <point x="1514.02" y="218.703" type="curve"/>
      <point x="1413.01" y="128.323"/>
      <point x="1311.78" y="11"/>
      <point x="1134.79" y="11" type="curve" smooth="yes"/>
      <point x="985.183" y="11"/>
      <point x="963.066" y="111.97"/>
      <point x="963.066" y="243" type="curve" smooth="yes"/>
      <point x="963.066" y="398.84"/>
      <point x="981.447" y="547.296"/>
      <point x="1023.21" y="690" type="curve"/>
      <point x="921.989" y="500.954"/>
      <point x="832.379" y="291.526"/>
      <point x="764.937" y="79.2402" type="curve" smooth="yes"/>
      <point x="749.082" y="29.3353"/>
      <point x="711.838" y="12"/>
      <point x="650.161" y="12" type="curve" smooth="yes"/>
      <point x="571.988" y="12"/>
      <point x="559.375" y="105.57"/>
      <point x="559.375" y="193" type="curve" smooth="yes"/>
      <point x="559.375" y="362.345"/>
      <point x="602.182" y="514.954"/>
      <point x="633.786" y="677" type="curve"/>
      <point x="505.977" y="484.138"/>
      <point x="423.344" y="299.944"/>
      <point x="334.633" y="78.6836" type="curve" smooth="yes"/>
      <point x="316.767" y="34.1239"/>
      <point x="288.521" y="12"/>
      <point x="235" y="12" type="curve" smooth="yes"/>
      <point x="131.915" y="12"/>
      <point x="114" y="105.357"/>
      <point x="114" y="215" type="curve" smooth="yes"/>
      <point x="114" y="444.207"/>
      <point x="158.912" y="682.786"/>
      <point x="217.703" y="866.135" type="curve" smooth="yes"/>
      <point x="235.13" y="918.416"/>
      <point x="279.332" y="964"/>
      <point x="340" y="964" type="curve" smooth="yes"/>
      <point x="390.571" y="964"/>
      <point x="430.036" y="928.62"/>
      <point x="430.036" y="874" type="curve" smooth="yes"/>
      <point x="430.036" y="868.147"/>
      <point x="430.011" y="861.547"/>
      <point x="429.196" y="856.324" type="curve" smooth="yes"/>
      <point x="402.2" y="735.776"/>
      <point x="367.924" y="603.268"/>
      <point x="350.483" y="522.235" type="curve"/>
      <point x="369.555" y="501.251" type="line"/>
      <point x="438.856" y="654.936"/>
      <point x="533.432" y="834.476"/>
      <point x="653.93" y="934.362" type="curve" smooth="yes"/>
      <point x="674.646" y="951.533"/>
      <point x="697.79" y="960"/>
      <point x="726.162" y="960" type="curve" smooth="yes"/>
      <point x="779.875" y="960"/>
      <point x="820.896" y="926.266"/>
    </contour>
  </outline>
</glyph>
<glyph name="n" format="1">
  <advance width="947"/>
  <unicode hex="006E"/>
  <outline>
    <contour>
      <point x="802" y="-12" type="curve" smooth="yes"/>
      <point x="650" y="-12"/>
      <point x="592" y="104"/>
      <point x="592" y="264" type="curve" smooth="yes"/>
      <point x="592" y="378"/>
      <point x="606" y="485"/>
      <point x="622" y="591" type="curve"/>
      <point x="606" y="591" type="line"/>
      <point x="344" y="71" type="line" smooth="yes"/>
      <point x="322" y="27"/>
      <point x="297" y="0"/>
      <point x="241" y="0" type="curve" smooth="yes"/>
      <point x="132" y="0"/>
      <point x="114" y="100"/>
      <point x="114" y="209" type="curve" smooth="yes"/>
      <point x="114" y="431"/>
      <point x="154" y="667"/>
      <point x="198" y="852" type="curve" smooth="yes"/>
      <point x="212" y="911"/>
      <point x="253" y="960"/>
      <point x="326" y="960" type="curve" smooth="yes"/>
      <point x="399" y="960"/>
      <point x="422" y="911"/>
      <point x="422" y="839" type="curve" smooth="yes"/>
      <point x="422" y="739"/>
      <point x="392" y="610"/>
      <point x="382" y="544" type="curve"/>
      <point x="402" y="544" type="line"/>
      <point x="458" y="647"/>
      <point x="517" y="765"/>
      <point x="576" y="866" type="curve" smooth="yes"/>
      <point x="612" y="926"/>
      <point x="657" y="960"/>
      <point x="740" y="960" type="curve" smooth="yes"/>
      <point x="817" y="960"/>
      <point x="849" y="886"/>
      <point x="849" y="802" type="curve" smooth="yes"/>
      <point x="849" y="620"/>
      <point x="793" y="412"/>
      <point x="793" y="300" type="curve" smooth="yes"/>
      <point x="793" y="225"/>
      <point x="812" y="187"/>
      <point x="846" y="187" type="curve" smooth="yes"/>
      <point x="911" y="187"/>
      <point x="985" y="282"/>
      <point x="1019" y="319" type="curve" smooth="yes"/>
      <point x="1037" y="338"/>
      <point x="1053" y="345"/>
      <point x="1066" y="345" type="curve" smooth="yes"/>
      <point x="1124" y="345"/>
      <point x="1127" y="218"/>
      <point x="1127" y="218" type="curve"/>
      <point x="1052" y="87"/>
      <point x="932" y="-12"/>
    </contour>
  </outline>
</glyph>
<glyph name="o" format="1">
  <advance width="833"/>
  <unicode hex="006F"/>
  <outline>
    <contour>
      <point x="261" y="446" type="curve" smooth="yes"/>
      <point x="261" y="313"/>
      <point x="304" y="192"/>
      <point x="436" y="192" type="curve" smooth="yes"/>
      <point x="545" y="192"/>
      <point x="611" y="352"/>
      <point x="611" y="461" type="curve"/>
      <point x="545" y="498"/>
      <point x="449" y="549"/>
      <point x="449" y="641" type="curve" smooth="yes"/>
      <point x="449" y="686"/>
      <point x="478" y="722"/>
      <point x="500" y="746" type="curve" smooth="yes"/>
      <point x="506" y="753"/>
      <point x="509" y="758"/>
      <point x="509" y="762" type="curve" smooth="yes"/>
      <point x="509" y="766"/>
      <point x="504" y="768"/>
      <point x="494" y="768" type="curve" smooth="yes"/>
      <point x="354" y="768"/>
      <point x="261" y="588"/>
    </contour>
    <contour>
      <point x="500.823" y="965.395" type="curve" smooth="yes"/>
      <point x="670.451" y="965.395"/>
      <point x="796" y="827.204"/>
      <point x="796" y="618" type="curve" smooth="yes"/>
      <point x="796" y="607"/>
      <point x="811" y="602"/>
      <point x="841" y="602" type="curve" smooth="yes"/>
      <point x="958.926" y="602"/>
      <point x="1005.79" y="736"/>
      <point x="1089" y="736" type="curve" smooth="yes"/>
      <point x="1095" y="736" type="line" smooth="yes"/>
      <point x="1135" y="736"/>
      <point x="1176" y="735"/>
      <point x="1176" y="694" type="curve" smooth="yes"/>
      <point x="1176" y="685"/>
      <point x="1175.42" y="672.398"/>
      <point x="1169" y="659" type="curve" smooth="yes"/>
      <point x="1118.42" y="553.398"/>
      <point x="980" y="407"/>
      <point x="788" y="407" type="curve"/>
      <point x="788" y="248"/>
      <point x="668.396" y="0"/>
      <point x="397" y="0" type="curve" smooth="yes"/>
      <point x="166" y="0"/>
      <point x="67" y="206"/>
      <point x="67" y="437" type="curve" smooth="yes"/>
      <point x="67" y="709.339"/>
      <point x="236.597" y="965.395"/>
    </contour>
  </outline>
</glyph>
<glyph name="u" format="1">
  <advance width="927"/>
  <unicode hex="0075"/>
  <outline>
    <contour>
      <point x="872" y="895" type="curve" smooth="yes"/>
      <point x="872" y="759"/>
      <point x="779" y="382"/>
      <point x="779" y="278" type="curve" smooth="yes"/>
      <point x="779" y="204.29"/>
      <point x="797.055" y="177.445"/>
      <point x="823.599" y="177.445" type="curve" smooth="yes"/>
      <point x="887.922" y="177.445"/>
      <point x="1002.09" y="335.082"/>
      <point x="1030" y="365.484" type="curve" smooth="yes"/>
      <point x="1052.37" y="389.983"/>
      <point x="1075.29" y="400.889"/>
      <point x="1096.32" y="400.889" type="curve" smooth="yes"/>
      <point x="1144.01" y="400.889"/>
      <point x="1182" y="344.818"/>
      <point x="1182" y="264" type="curve"/>
      <point x="1120.26" y="136.609"/>
      <point x="947.824" y="0.25"/>
      <point x="788.004" y="0.25" type="curve" smooth="yes"/>
      <point x="706.454" y="0.25"/>
      <point x="587.861" y="57.0879"/>
      <point x="579" y="208" type="curve"/>
      <point x="579" y="208"/>
      <point x="488.79" y="0"/>
      <point x="298" y="0" type="curve" smooth="yes"/>
      <point x="131" y="0"/>
      <point x="77" y="130"/>
      <point x="77" y="320" type="curve" smooth="yes"/>
      <point x="77" y="499"/>
      <point x="141" y="959"/>
      <point x="332" y="959" type="curve" smooth="yes"/>
      <point x="371" y="959"/>
      <point x="422" y="939"/>
      <point x="422" y="872" type="curve" smooth="yes"/>
      <point x="422" y="867"/>
      <point x="423" y="862"/>
      <point x="421" y="857" type="curve" smooth="yes"/>
      <point x="350" y="657"/>
      <point x="314" y="497"/>
      <point x="314" y="328" type="curve" smooth="yes"/>
      <point x="314" y="279"/>
      <point x="334" y="225"/>
      <point x="392" y="225" type="curve" smooth="yes"/>
      <point x="479" y="225"/>
      <point x="526" y="319"/>
      <point x="541" y="394" type="curve" smooth="yes"/>
      <point x="640" y="902" type="line" smooth="yes"/>
      <point x="648" y="939"/>
      <point x="712" y="959"/>
      <point x="761" y="959" type="curve" smooth="yes"/>
      <point x="814" y="959"/>
      <point x="872" y="941"/>
    </contour>
  </outline>
</glyph>
<glyph name="w" format="1">
  <advance width="1249"/>
  <unicode hex="0077"/>
  <outline>
    <contour>
      <point x="65.7919" y="315.64" type="curve" smooth="yes"/>
      <point x="65.7919" y="336.226"/>
      <point x="65.7154" y="358.787"/>
      <point x="65.7154" y="382.755" type="curve" smooth="yes"/>
      <point x="65.7154" y="609.109"/>
      <point x="72.5357" y="961"/>
      <point x="215" y="961" type="curve"/>
      <point x="238.875" y="959" type="line"/>
      <point x="239" y="959" type="line" smooth="yes"/>
      <point x="285.848" y="959"/>
      <point x="326.701" y="942.092"/>
      <point x="326.701" y="905" type="curve" smooth="yes"/>
      <point x="326.725" y="898.385" type="line"/>
      <point x="256.552" y="313.726" type="line"/>
      <point x="275.039" y="355.148" type="line"/>
      <point x="343.236" y="513.655"/>
      <point x="391.873" y="669.439"/>
      <point x="464.527" y="811.633" type="curve" smooth="yes"/>
      <point x="506.135" y="893.362"/>
      <point x="555.799" y="959"/>
      <point x="672.585" y="959" type="curve" smooth="yes"/>
      <point x="719.255" y="959"/>
      <point x="761.044" y="942.018"/>
      <point x="761.044" y="906" type="curve" smooth="yes"/>
      <point x="761.044" y="903.857"/>
      <point x="761" y="902"/>
      <point x="760.084" y="898.449" type="curve" smooth="yes"/>
      <point x="688.023" y="353.74" type="line"/>
      <point x="682" y="296" type="line"/>
      <point x="935.724" y="890.796" type="line" smooth="yes"/>
      <point x="953" y="931"/>
      <point x="1015.1" y="960"/>
      <point x="1079.1" y="960" type="curve" smooth="yes"/>
      <point x="1117.08" y="960"/>
      <point x="1165.79" y="932.022"/>
      <point x="1165.79" y="883.744" type="curve" smooth="yes"/>
      <point x="1165.79" y="878.624"/>
      <point x="1164.7" y="873.238"/>
      <point x="1162.35" y="867.597" type="curve" smooth="yes"/>
      <point x="1124.62" y="742.04"/>
      <point x="1070.09" y="625.34"/>
      <point x="1070.09" y="443.588" type="curve" smooth="yes"/>
      <point x="1070.09" y="376.43"/>
      <point x="1096.11" y="324.261"/>
      <point x="1171.41" y="324.261" type="curve" smooth="yes"/>
      <point x="1243.48" y="324.261"/>
      <point x="1357.23" y="412.345"/>
      <point x="1420.68" y="459.512" type="curve" smooth="yes"/>
      <point x="1441.3" y="474.845"/>
      <point x="1458.14" y="480.165"/>
      <point x="1470.12" y="480.165" type="curve" smooth="yes"/>
      <point x="1488.57" y="480.165"/>
      <point x="1511.87" y="449.34"/>
      <point x="1511.87" y="412.98" type="curve" smooth="yes"/>
      <point x="1511.87" y="401.903"/>
      <point x="1509.71" y="390.312"/>
      <point x="1504.59" y="378.922" type="curve"/>
      <point x="1411.1" y="271.713"/>
      <point x="1299.85" y="145.367"/>
      <point x="1130.86" y="145.367" type="curve" smooth="yes"/>
      <point x="998.181" y="145.367"/>
      <point x="921.681" y="255.322"/>
      <point x="918.806" y="437.452" type="curve"/>
      <point x="870.511" y="309.215"/>
      <point x="760.5" y="3.26953"/>
      <point x="664.694" y="3.26953" type="curve" smooth="yes"/>
      <point x="553.541" y="3.26953"/>
      <point x="549.312" y="182.775"/>
      <point x="549.312" y="347.986" type="curve" smooth="yes"/>
      <point x="549.312" y="442.367"/>
      <point x="548.333" y="602.8"/>
      <point x="548.333" y="602.8" type="curve"/>
      <point x="516.353" y="498.716" type="line"/>
      <point x="468.478" y="318.388"/>
      <point x="393.136" y="134.79"/>
      <point x="272.2" y="38.4004" type="curve" smooth="yes"/>
      <point x="245.387" y="17.0296"/>
      <point x="223.644" y="3"/>
      <point x="200" y="3" type="curve" smooth="yes"/>
      <point x="89.0676" y="3"/>
      <point x="65.7919" y="142.97"/>
    </contour>
  </outline>
</glyph>
<glyph name="asciitilde" format="1">
  <advance width="864"/>
  <unicode hex="007E"/>
  <outline>
    <contour>
      <point x="229" y="1378" type="curve" smooth="yes"/>
      <point x="183" y="1378"/>
      <point x="146" y="1405"/>
      <point x="146" y="1451" type="curve" smooth="yes"/>
      <point x="146" y="1566"/>
      <point x="274" y="1713"/>
      <point x="392" y="1713" type="curve" smooth="yes"/>
      <point x="499" y="1713"/>
      <point x="549" y="1626"/>
      <point x="608" y="1568" type="curve" smooth="yes"/>
      <point x="710" y="1467" type="line"/>
      <point x="759" y="1521"/>
      <point x="792" y="1630"/>
      <point x="891" y="1630" type="curve" smooth="yes"/>
      <point x="937" y="1630"/>
      <point x="974" y="1603"/>
      <point x="974" y="1557" type="curve" smooth="yes"/>
      <point x="974" y="1442"/>
      <point x="846" y="1295"/>
      <point x="728" y="1295" type="curve" smooth="yes"/>
      <point x="621" y="1295"/>
      <point x="571" y="1382"/>
      <point x="512" y="1440" type="curve" smooth="yes"/>
      <point x="410" y="1541" type="line"/>
      <point x="366" y="1486"/>
      <point x="324" y="1378"/>
    </contour>
  </outline>
</glyph>
<glyph name="cent" format="1">
  <advance width="896"/>
  <unicode hex="00A2"/>
  <outline>
    <contour>
      <point x="491" y="750" type="curve"/>
      <point x="375" y="703"/>
      <point x="320" y="571"/>
      <point x="320" y="414" type="curve" smooth="yes"/>
      <point x="320" y="306"/>
      <point x="354" y="214"/>
      <point x="444" y="195" type="curve"/>
      <point x="459" y="377"/>
      <point x="475" y="569"/>
    </contour>
    <contour>
      <point x="429" y="0" type="curve"/>
      <point x="196" y="3"/>
      <point x="64" y="179"/>
      <point x="64" y="413" type="curve" smooth="yes"/>
      <point x="64" y="697"/>
      <point x="254" y="928"/>
      <point x="509" y="956" type="curve"/>
      <point x="515" y="1023" type="line"/>
      <point x="518" y="1077"/>
      <point x="547" y="1135"/>
      <point x="604" y="1135" type="curve" smooth="yes"/>
      <point x="632" y="1135"/>
      <point x="645" y="1086"/>
      <point x="645" y="1057" type="curve" smooth="yes"/>
      <point x="645" y="1027"/>
      <point x="641" y="980"/>
      <point x="638" y="954" type="curve"/>
      <point x="762" y="936"/>
      <point x="886" y="866"/>
      <point x="886" y="729" type="curve" smooth="yes"/>
      <point x="886" y="646"/>
      <point x="853" y="544"/>
      <point x="772" y="544" type="curve" smooth="yes"/>
      <point x="646" y="544"/>
      <point x="738" y="741"/>
      <point x="624" y="765" type="curve"/>
      <point x="612" y="583"/>
      <point x="603" y="394"/>
      <point x="586" y="202" type="curve"/>
      <point x="654" y="222"/>
      <point x="734" y="271"/>
      <point x="785" y="307" type="curve" smooth="yes"/>
      <point x="793" y="313"/>
      <point x="802" y="314"/>
      <point x="809" y="314" type="curve" smooth="yes"/>
      <point x="852" y="314"/>
      <point x="884" y="262"/>
      <point x="884" y="218" type="curve" smooth="yes"/>
      <point x="884" y="191"/>
      <point x="871" y="175"/>
      <point x="854" y="161" type="curve" smooth="yes"/>
      <point x="778" y="98"/>
      <point x="682" y="32"/>
      <point x="568" y="5" type="curve"/>
      <point x="552" y="-130" type="line"/>
      <point x="544" y="-167"/>
      <point x="532" y="-199"/>
      <point x="490" y="-199" type="curve" smooth="yes"/>
      <point x="482" y="-199"/>
      <point x="476" y="-198"/>
      <point x="469" y="-198" type="curve" smooth="yes"/>
      <point x="433" y="-198"/>
      <point x="423" y="-129"/>
      <point x="423" y="-89" type="curve" smooth="yes"/>
      <point x="423" y="-54"/>
      <point x="427" y="-40"/>
    </contour>
  </outline>
</glyph>
<glyph name="guillemotleft" format="1">
  <advance width="1440"/>
  <unicode hex="00AB"/>
  <outline>
    <contour>
      <point x="1390" y="158" type="curve" smooth="yes"/>
      <point x="1390" y="107"/>
      <point x="1332" y="73"/>
      <point x="1278" y="73" type="curve" smooth="yes"/>
      <point x="1258" y="73"/>
      <point x="1235" y="75"/>
      <point x="1214" y="87" type="curve" smooth="yes"/>
      <point x="1061" y="173"/>
      <point x="963" y="272"/>
      <point x="844" y="385" type="curve" smooth="yes"/>
      <point x="803" y="424"/>
      <point x="768" y="467"/>
      <point x="768" y="533" type="curve" smooth="yes"/>
      <point x="768" y="710"/>
      <point x="1003" y="809"/>
      <point x="1108" y="884" type="curve" smooth="yes"/>
      <point x="1167" y="927"/>
      <point x="1223" y="999"/>
      <point x="1309" y="999" type="curve" smooth="yes"/>
      <point x="1371" y="999"/>
      <point x="1421" y="958"/>
      <point x="1421" y="896" type="curve" smooth="yes"/>
      <point x="1421" y="838"/>
      <point x="1366" y="805"/>
      <point x="1322" y="773" type="curve" smooth="yes"/>
      <point x="996" y="544" type="line"/>
      <point x="1265" y="313" type="line"/>
      <point x="1308" y="274"/>
      <point x="1390" y="240"/>
    </contour>
    <contour>
      <point x="814" y="158" type="curve" smooth="yes"/>
      <point x="814" y="107"/>
      <point x="756" y="73"/>
      <point x="702" y="73" type="curve" smooth="yes"/>
      <point x="682" y="73"/>
      <point x="659" y="75"/>
      <point x="638" y="87" type="curve" smooth="yes"/>
      <point x="485" y="173"/>
      <point x="387" y="272"/>
      <point x="268" y="385" type="curve" smooth="yes"/>
      <point x="227" y="424"/>
      <point x="192" y="467"/>
      <point x="192" y="533" type="curve" smooth="yes"/>
      <point x="192" y="710"/>
      <point x="427" y="809"/>
      <point x="532" y="884" type="curve" smooth="yes"/>
      <point x="591" y="927"/>
      <point x="647" y="999"/>
      <point x="733" y="999" type="curve" smooth="yes"/>
      <point x="795" y="999"/>
      <point x="845" y="958"/>
      <point x="845" y="896" type="curve" smooth="yes"/>
      <point x="845" y="838"/>
      <point x="790" y="805"/>
      <point x="746" y="773" type="curve" smooth="yes"/>
      <point x="420" y="544" type="line"/>
      <point x="689" y="313" type="line"/>
      <point x="732" y="274"/>
      <point x="814" y="240"/>
    </contour>
  </outline>
</glyph>
<glyph name="logicalnot" format="1">
  <advance width="1216"/>
  <unicode hex="00AC"/>
  <outline>
    <contour>
      <point x="940" y="768" type="line" smooth="yes"/>
      <point x="996" y="768"/>
      <point x="1035" y="741"/>
      <point x="1035" y="691" type="curve" smooth="yes"/>
      <point x="1035" y="685" type="line"/>
      <point x="1015" y="353" type="line" smooth="yes"/>
      <point x="1011" y="286"/>
      <point x="979" y="220"/>
      <point x="911" y="220" type="curve" smooth="yes"/>
      <point x="851" y="220"/>
      <point x="822" y="273"/>
      <point x="822" y="336" type="curve" smooth="yes"/>
      <point x="822" y="341"/>
      <point x="823" y="344"/>
      <point x="823" y="349" type="curve" smooth="yes"/>
      <point x="836" y="576" type="line"/>
      <point x="293" y="576" type="line" smooth="yes"/>
      <point x="228" y="576"/>
      <point x="170" y="604"/>
      <point x="170" y="666" type="curve" smooth="yes"/>
      <point x="170" y="734"/>
      <point x="237" y="768"/>
      <point x="309" y="768" type="curve" smooth="yes"/>
    </contour>
  </outline>
</glyph>
<glyph name="degree" format="1">
  <advance width="737"/>
  <unicode hex="00B0"/>
  <outline>
    <contour>
      <point x="509" y="1388" type="curve" smooth="yes"/>
      <point x="509" y="1447"/>
      <point x="474" y="1489"/>
      <point x="413" y="1489" type="curve" smooth="yes"/>
      <point x="303" y="1489"/>
      <point x="215" y="1423"/>
      <point x="215" y="1316" type="curve" smooth="yes"/>
      <point x="215" y="1249"/>
      <point x="256" y="1203"/>
      <point x="324" y="1203" type="curve" smooth="yes"/>
      <point x="429" y="1203"/>
      <point x="509" y="1285"/>
    </contour>
    <contour>
      <point x="324" y="1055" type="curve" smooth="yes"/>
      <point x="168" y="1055"/>
      <point x="64" y="1155"/>
      <point x="64" y="1317" type="curve" smooth="yes"/>
      <point x="64" y="1511"/>
      <point x="249" y="1632"/>
      <point x="440" y="1632" type="curve" smooth="yes"/>
      <point x="576" y="1632"/>
      <point x="672" y="1542"/>
      <point x="672" y="1403" type="curve" smooth="yes"/>
      <point x="672" y="1197"/>
      <point x="525" y="1055"/>
    </contour>
  </outline>
</glyph>
<glyph name="paragraph" format="1">
  <advance width="1308"/>
  <unicode hex="00B6"/>
  <outline>
    <contour>
      <point x="1011" y="0" type="curve" smooth="yes"/>
      <point x="954" y="0"/>
      <point x="910" y="36"/>
      <point x="910" y="95" type="curve" smooth="yes"/>
      <point x="910" y="106"/>
      <point x="911" y="117"/>
      <point x="914" y="127" type="curve"/>
      <point x="959" y="390"/>
      <point x="989" y="673"/>
      <point x="1039" y="931" type="curve"/>
      <point x="988" y="925"/>
      <point x="921" y="921"/>
      <point x="870" y="914" type="curve"/>
      <point x="843" y="764"/>
      <point x="815" y="616"/>
      <point x="788" y="466" type="curve" smooth="yes"/>
      <point x="763" y="330"/>
      <point x="742" y="188"/>
      <point x="712" y="55" type="curve" smooth="yes"/>
      <point x="702" y="11"/>
      <point x="647" y="-8"/>
      <point x="589" y="-8" type="curve" smooth="yes"/>
      <point x="526" y="-8"/>
      <point x="465" y="18"/>
      <point x="465" y="81" type="curve" smooth="yes"/>
      <point x="465" y="91"/>
      <point x="467" y="102"/>
      <point x="471" y="114" type="curve"/>
      <point x="499" y="392"/>
      <point x="550" y="638"/>
      <point x="595" y="926" type="curve"/>
      <point x="328" y="926"/>
      <point x="96" y="1040"/>
      <point x="96" y="1295" type="curve" smooth="yes"/>
      <point x="96" y="1616"/>
      <point x="537" y="1743"/>
      <point x="860" y="1743" type="curve" smooth="yes"/>
      <point x="862" y="1743" type="line" smooth="yes"/>
      <point x="1100" y="1743"/>
      <point x="1411" y="1743"/>
      <point x="1411" y="1519" type="curve" smooth="yes"/>
      <point x="1411" y="1426"/>
      <point x="1376" y="1324"/>
      <point x="1358" y="1218" type="curve" smooth="yes"/>
      <point x="1297" y="861"/>
      <point x="1253" y="464"/>
      <point x="1161" y="126" type="curve" smooth="yes"/>
      <point x="1143" y="59"/>
      <point x="1093" y="0"/>
    </contour>
  </outline>
</glyph>
<glyph name="ordmasculine" format="1">
  <advance width="799"/>
  <unicode hex="00BA"/>
  <outline>
    <contour>
      <point x="258" y="1143" type="curve" smooth="yes"/>
      <point x="258" y="1048"/>
      <point x="289" y="967"/>
      <point x="383" y="967" type="curve" smooth="yes"/>
      <point x="485" y="967"/>
      <point x="534" y="1168"/>
      <point x="534" y="1277" type="curve" smooth="yes"/>
      <point x="534" y="1363"/>
      <point x="516" y="1465"/>
      <point x="433" y="1465" type="curve" smooth="yes"/>
      <point x="317" y="1465"/>
      <point x="258" y="1265"/>
    </contour>
    <contour>
      <point x="70" y="1179" type="curve" smooth="yes"/>
      <point x="70" y="1425"/>
      <point x="239" y="1631"/>
      <point x="483" y="1631" type="curve" smooth="yes"/>
      <point x="654" y="1631"/>
      <point x="723" y="1474"/>
      <point x="723" y="1301" type="curve" smooth="yes"/>
      <point x="723" y="1057"/>
      <point x="598" y="801"/>
      <point x="355" y="801" type="curve" smooth="yes"/>
      <point x="155" y="801"/>
      <point x="70" y="980"/>
    </contour>
  </outline>
</glyph>
<glyph name="AE" format="1">
  <advance width="2304"/>
  <unicode hex="00C6"/>
  <outline>
    <contour>
      <point x="416" y="456" type="curve" smooth="yes"/>
      <point x="416" y="281"/>
      <point x="479" y="160"/>
      <point x="648" y="160" type="curve" smooth="yes"/>
      <point x="972" y="160"/>
      <point x="1178" y="650"/>
      <point x="1248" y="896" type="curve" smooth="yes"/>
      <point x="1400" y="1426" type="line"/>
      <point x="1123" y="1426"/>
      <point x="906" y="1274"/>
      <point x="752" y="1133" type="curve" smooth="yes"/>
      <point x="586" y="981"/>
      <point x="416" y="760"/>
    </contour>
    <contour>
      <point x="1443" y="390" type="curve" smooth="yes"/>
      <point x="1443" y="209"/>
      <point x="1543" y="128"/>
      <point x="1722" y="128" type="curve" smooth="yes"/>
      <point x="2010" y="128"/>
      <point x="2268" y="253"/>
      <point x="2425" y="392" type="curve" smooth="yes"/>
      <point x="2457" y="420"/>
      <point x="2482" y="448"/>
      <point x="2499" y="477" type="curve"/>
      <point x="2568" y="250" type="line"/>
      <point x="2386" y="56"/>
      <point x="2092" y="-96"/>
      <point x="1728" y="-96" type="curve" smooth="yes"/>
      <point x="1440" y="-96"/>
      <point x="1213" y="41"/>
      <point x="1213" y="329" type="curve" smooth="yes"/>
      <point x="1213" y="346"/>
      <point x="1214" y="365"/>
      <point x="1216" y="384" type="curve"/>
      <point x="1111" y="210"/>
      <point x="948" y="50"/>
      <point x="754" y="-29" type="curve" smooth="yes"/>
      <point x="696" y="-52"/>
      <point x="642" y="-64"/>
      <point x="591" y="-64" type="curve" smooth="yes"/>
      <point x="296" y="-64"/>
      <point x="128" y="149"/>
      <point x="128" y="450" type="curve" smooth="yes"/>
      <point x="128" y="789"/>
      <point x="306" y="1047"/>
      <point x="482" y="1231" type="curve" smooth="yes"/>
      <point x="676" y="1433"/>
      <point x="954" y="1618"/>
      <point x="1336" y="1618" type="curve" smooth="yes"/>
      <point x="1431" y="1618"/>
      <point x="1531" y="1581"/>
      <point x="1531" y="1486" type="curve" smooth="yes"/>
      <point x="1531" y="1477"/>
      <point x="1530" y="1468"/>
      <point x="1528" y="1458" type="curve"/>
      <point x="1604" y="1589"/>
      <point x="1711" y="1696"/>
      <point x="1909" y="1696" type="curve" smooth="yes"/>
      <point x="2143" y="1696"/>
      <point x="2319" y="1588"/>
      <point x="2507" y="1534" type="curve"/>
      <point x="2526" y="1522"/>
      <point x="2536" y="1499"/>
      <point x="2536" y="1469" type="curve" smooth="yes"/>
      <point x="2536" y="1414"/>
      <point x="2504" y="1331"/>
      <point x="2451" y="1331" type="curve" smooth="yes"/>
      <point x="2416" y="1331"/>
      <point x="2380" y="1370"/>
      <point x="2340" y="1390" type="curve" smooth="yes"/>
      <point x="2231" y="1445"/>
      <point x="2082" y="1504"/>
      <point x="1925" y="1504" type="curve" smooth="yes"/>
      <point x="1673" y="1504"/>
      <point x="1536" y="1203"/>
      <point x="1536" y="960" type="curve"/>
      <point x="1696" y="974"/>
      <point x="1849" y="992"/>
      <point x="2016" y="992" type="curve" smooth="yes"/>
      <point x="2070" y="992"/>
      <point x="2106" y="956"/>
      <point x="2106" y="906" type="curve" smooth="yes"/>
      <point x="2106" y="839"/>
      <point x="2053" y="800"/>
      <point x="1984" y="800" type="curve" smooth="yes"/>
      <point x="1832" y="800"/>
      <point x="1657" y="768"/>
      <point x="1504" y="768" type="curve"/>
      <point x="1467" y="664"/>
      <point x="1443" y="534"/>
    </contour>
  </outline>
</glyph>
<glyph name="eth" format="1">
  <advance width="1089"/>
  <unicode hex="00F0"/>
  <outline>
    <contour>
      <point x="290" y="416" type="curve" smooth="yes"/>
      <point x="290" y="266"/>
      <point x="388" y="192"/>
      <point x="542" y="192" type="curve" smooth="yes"/>
      <point x="734" y="192"/>
      <point x="815" y="559"/>
      <point x="847" y="729" type="curve"/>
      <point x="797" y="753"/>
      <point x="740" y="767"/>
      <point x="661" y="767" type="curve" smooth="yes"/>
      <point x="470" y="767"/>
      <point x="290" y="607"/>
    </contour>
    <contour>
      <point x="743" y="1384" type="line"/>
      <point x="671" y="1461"/>
      <point x="569" y="1506"/>
      <point x="426" y="1506" type="curve" smooth="yes"/>
      <point x="376" y="1506"/>
      <point x="346" y="1567"/>
      <point x="346" y="1618" type="curve" smooth="yes"/>
      <point x="346" y="1696"/>
      <point x="410" y="1729"/>
      <point x="491" y="1729" type="curve" smooth="yes"/>
      <point x="723" y="1729"/>
      <point x="871" y="1619"/>
      <point x="971" y="1483" type="curve"/>
      <point x="1136" y="1555" type="line" smooth="yes"/>
      <point x="1150" y="1561"/>
      <point x="1167" y="1567"/>
      <point x="1187" y="1567" type="curve" smooth="yes"/>
      <point x="1239" y="1567"/>
      <point x="1267" y="1520"/>
      <point x="1267" y="1466" type="curve" smooth="yes"/>
      <point x="1267" y="1414"/>
      <point x="1229" y="1386"/>
      <point x="1182" y="1366" type="curve" smooth="yes"/>
      <point x="1062" y="1314" type="line"/>
      <point x="1102" y="1213"/>
      <point x="1126" y="1093"/>
      <point x="1126" y="958" type="curve" smooth="yes"/>
      <point x="1126" y="532"/>
      <point x="980" y="161"/>
      <point x="682" y="34" type="curve" smooth="yes"/>
      <point x="628" y="11"/>
      <point x="571" y="0"/>
      <point x="510" y="0" type="curve" smooth="yes"/>
      <point x="252" y="0"/>
      <point x="64" y="153"/>
      <point x="64" y="416" type="curve" smooth="yes"/>
      <point x="64" y="693"/>
      <point x="297" y="895"/>
      <point x="506" y="967" type="curve" smooth="yes"/>
      <point x="552" y="983"/>
      <point x="599" y="991"/>
      <point x="645" y="991" type="curve" smooth="yes"/>
      <point x="733" y="991"/>
      <point x="807" y="981"/>
      <point x="872" y="961" type="curve"/>
      <point x="872" y="968" type="line" smooth="yes"/>
      <point x="872" y="1063"/>
      <point x="860" y="1144"/>
      <point x="837" y="1216" type="curve"/>
      <point x="775" y="1190"/>
      <point x="715" y="1163"/>
      <point x="653" y="1136" type="curve" smooth="yes"/>
      <point x="638" y="1129"/>
      <point x="623" y="1126"/>
      <point x="609" y="1126" type="curve" smooth="yes"/>
      <point x="554" y="1126"/>
      <point x="511" y="1183"/>
      <point x="511" y="1236" type="curve" smooth="yes"/>
      <point x="511" y="1277"/>
      <point x="541" y="1297"/>
      <point x="577" y="1313" type="curve" smooth="yes"/>
    </contour>
  </outline>
</glyph>
<glyph name="oslash" format="1">
  <advance width="873"/>
  <unicode hex="00F8"/>
  <outline>
    <contour>
      <point x="450" y="194" type="curve"/>
      <point x="567" y="216"/>
      <point x="638" y="410"/>
      <point x="638" y="551" type="curve" smooth="yes"/>
      <point x="638" y="620"/>
      <point x="623" y="681"/>
      <point x="593" y="719" type="curve"/>
      <point x="548" y="548"/>
      <point x="501" y="372"/>
    </contour>
    <contour>
      <point x="459" y="763" type="line"/>
      <point x="338" y="728"/>
      <point x="258" y="551"/>
      <point x="258" y="396" type="curve" smooth="yes"/>
      <point x="258" y="328"/>
      <point x="276" y="273"/>
      <point x="311" y="237" type="curve"/>
    </contour>
    <contour>
      <point x="653" y="948" type="line"/>
      <point x="868" y="904"/>
      <point x="1011" y="752"/>
      <point x="1127" y="606" type="curve"/>
      <point x="1108" y="465" type="line"/>
      <point x="1022" y="580"/>
      <point x="870" y="680"/>
      <point x="750" y="760" type="curve"/>
      <point x="742" y="749" type="line"/>
      <point x="775" y="683"/>
      <point x="800" y="595"/>
      <point x="800" y="503" type="curve" smooth="yes"/>
      <point x="800" y="246"/>
      <point x="648" y="0"/>
      <point x="394" y="0" type="curve"/>
      <point x="360" y="-108" type="line"/>
      <point x="346" y="-146"/>
      <point x="328" y="-180"/>
      <point x="279" y="-180" type="curve" smooth="yes"/>
      <point x="237" y="-180"/>
      <point x="224" y="-158"/>
      <point x="224" y="-114" type="curve" smooth="yes"/>
      <point x="224" y="-58"/>
      <point x="237" y="-23"/>
      <point x="254" y="33" type="curve"/>
      <point x="129" y="98"/>
      <point x="64" y="250"/>
      <point x="64" y="437" type="curve" smooth="yes"/>
      <point x="64" y="732"/>
      <point x="233" y="946"/>
      <point x="514" y="959" type="curve"/>
      <point x="539" y="1054"/>
      <point x="558" y="1216"/>
      <point x="674" y="1216" type="curve" smooth="yes"/>
      <point x="704" y="1216"/>
      <point x="704" y="1175"/>
      <point x="704" y="1145" type="curve" smooth="yes"/>
      <point x="704" y="1112"/>
      <point x="689" y="1072"/>
      <point x="680" y="1043" type="curve" smooth="yes"/>
    </contour>
  </outline>
</glyph>
<glyph name="thorn" format="1">
  <advance width="1023"/>
  <unicode hex="00FE"/>
  <outline>
    <contour>
      <point x="691" y="607" type="curve" smooth="yes"/>
      <point x="691" y="692"/>
      <point x="648" y="732"/>
      <point x="561" y="732" type="curve" smooth="yes"/>
      <point x="338" y="732"/>
      <point x="325" y="431"/>
      <point x="307" y="225" type="curve"/>
      <point x="362" y="208"/>
      <point x="426" y="192"/>
      <point x="495" y="192" type="curve" smooth="yes"/>
      <point x="646" y="192"/>
      <point x="691" y="450"/>
    </contour>
    <contour>
      <point x="367" y="1561" type="curve" smooth="yes"/>
      <point x="440" y="1561"/>
      <point x="576" y="1480"/>
      <point x="576" y="1408" type="curve" smooth="yes"/>
      <point x="576" y="1391"/>
      <point x="488" y="1390"/>
      <point x="486" y="1376" type="curve" smooth="yes"/>
      <point x="391" y="805" type="line"/>
      <point x="468" y="872"/>
      <point x="552" y="960"/>
      <point x="666" y="960" type="curve" smooth="yes"/>
      <point x="829" y="960"/>
      <point x="915" y="813"/>
      <point x="915" y="649" type="curve" smooth="yes"/>
      <point x="915" y="491"/>
      <point x="882" y="385"/>
      <point x="819" y="288" type="curve"/>
      <point x="929" y="352"/>
      <point x="1031" y="407"/>
      <point x="1120" y="496" type="curve"/>
      <point x="1197" y="331" type="line"/>
      <point x="1068" y="214"/>
      <point x="923" y="142"/>
      <point x="723" y="96" type="curve"/>
      <point x="680" y="53"/>
      <point x="608" y="24"/>
      <point x="547" y="0" type="curve"/>
      <point x="522" y="0" type="line" smooth="yes"/>
      <point x="429" y="0"/>
      <point x="340" y="24"/>
      <point x="268" y="50" type="curve"/>
      <point x="144" y="-615" type="line"/>
      <point x="133" y="-663"/>
      <point x="110" y="-693"/>
      <point x="53" y="-693" type="curve" smooth="yes"/>
      <point x="41" y="-693"/>
      <point x="31" y="-692"/>
      <point x="20" y="-692" type="curve" smooth="yes"/>
      <point x="-39" y="-692"/>
      <point x="-66" y="-624"/>
      <point x="-66" y="-563" type="curve" smooth="yes"/>
      <point x="-66" y="-166"/>
      <point x="46" y="193"/>
      <point x="110" y="560" type="curve" smooth="yes"/>
      <point x="122" y="631"/>
      <point x="136" y="714"/>
      <point x="153" y="809" type="curve" smooth="yes"/>
      <point x="181" y="968"/>
      <point x="222" y="1145"/>
      <point x="256" y="1312" type="curve" smooth="yes"/>
      <point x="288" y="1472" type="line" smooth="yes"/>
      <point x="298" y="1521"/>
      <point x="320" y="1561"/>
    </contour>
  </outline>
</glyph>
<glyph name="Lslash" format="1">
  <advance width="992"/>
  <unicode hex="0141"/>
  <outline>
    <contour>
      <point x="933" y="1545" type="curve" smooth="yes"/>
      <point x="933" y="1602"/>
      <point x="922" y="1654"/>
      <point x="875" y="1654" type="curve" smooth="yes"/>
      <point x="808" y="1654"/>
      <point x="750" y="1577"/>
      <point x="710" y="1525" type="curve" smooth="yes"/>
      <point x="620" y="1407"/>
      <point x="546" y="1259"/>
      <point x="493" y="1091" type="curve"/>
      <point x="594" y="1113"/>
      <point x="695" y="1135"/>
      <point x="797" y="1157" type="curve"/>
      <point x="833" y="1217"/>
      <point x="865" y="1280"/>
      <point x="892" y="1345" type="curve" smooth="yes"/>
      <point x="920" y="1413"/>
      <point x="933" y="1463"/>
    </contour>
    <contour>
      <point x="-92" y="129" type="curve" smooth="yes"/>
      <point x="-146" y="129"/>
      <point x="-181" y="204"/>
      <point x="-181" y="260" type="curve" smooth="yes"/>
      <point x="-181" y="343"/>
      <point x="-95" y="368"/>
      <point x="-39" y="405" type="curve" smooth="yes"/>
      <point x="20" y="444"/>
      <point x="89" y="492"/>
      <point x="147" y="534" type="curve"/>
      <point x="155" y="602" type="line"/>
      <point x="163" y="679"/>
      <point x="174" y="755"/>
      <point x="188" y="828" type="curve"/>
      <point x="140" y="818"/>
      <point x="93" y="808"/>
      <point x="46" y="798" type="curve" smooth="yes"/>
      <point x="36" y="796"/>
      <point x="27" y="795"/>
      <point x="19" y="795" type="curve" smooth="yes"/>
      <point x="-41" y="795"/>
      <point x="-75" y="851"/>
      <point x="-75" y="908" type="curve" smooth="yes"/>
      <point x="-75" y="1008"/>
      <point x="137" y="1014"/>
      <point x="232" y="1035" type="curve" smooth="yes"/>
      <point x="234" y="1035"/>
      <point x="235" y="1036"/>
      <point x="237" y="1036" type="curve"/>
      <point x="320" y="1323"/>
      <point x="456" y="1563"/>
      <point x="646" y="1730" type="curve" smooth="yes"/>
      <point x="728" y="1802"/>
      <point x="829" y="1872"/>
      <point x="956" y="1872" type="curve" smooth="yes"/>
      <point x="1119" y="1872"/>
      <point x="1184" y="1736"/>
      <point x="1184" y="1568" type="curve" smooth="yes"/>
      <point x="1184" y="1441"/>
      <point x="1153" y="1328"/>
      <point x="1108" y="1226" type="curve"/>
      <point x="1207" y="1248"/>
      <point x="1305" y="1269"/>
      <point x="1401" y="1291" type="curve" smooth="yes"/>
      <point x="1410" y="1294"/>
      <point x="1421" y="1295"/>
      <point x="1433" y="1295" type="curve" smooth="yes"/>
      <point x="1489" y="1295"/>
      <point x="1514" y="1258"/>
      <point x="1514" y="1199" type="curve" smooth="yes"/>
      <point x="1514" y="1074"/>
      <point x="1286" y="1069"/>
      <point x="1174" y="1044" type="curve" smooth="yes"/>
      <point x="1110" y="1030"/>
      <point x="1047" y="1016"/>
      <point x="982" y="1002" type="curve"/>
      <point x="972" y="988"/>
      <point x="962" y="974"/>
      <point x="953" y="960" type="curve" smooth="yes"/>
      <point x="807" y="750"/>
      <point x="615" y="562"/>
      <point x="394" y="426" type="curve"/>
      <point x="392" y="354"/>
      <point x="388" y="311"/>
      <point x="388" y="250" type="curve" smooth="yes"/>
      <point x="388" y="239" type="line" smooth="yes"/>
      <point x="388" y="202"/>
      <point x="433" y="201"/>
      <point x="474" y="201" type="curve" smooth="yes"/>
      <point x="482" y="201" type="line" smooth="yes"/>
      <point x="512" y="201"/>
      <point x="552" y="208"/>
      <point x="603" y="223" type="curve" smooth="yes"/>
      <point x="938" y="319" type="line" smooth="yes"/>
      <point x="947" y="321"/>
      <point x="958" y="323"/>
      <point x="969" y="323" type="curve" smooth="yes"/>
      <point x="1034" y="323"/>
      <point x="1066" y="272"/>
      <point x="1066" y="208" type="curve" smooth="yes"/>
      <point x="1066" y="144"/>
      <point x="1026" y="98"/>
      <point x="970" y="89" type="curve"/>
      <point x="798" y="21"/>
      <point x="609" y="-50"/>
      <point x="377" y="-50" type="curve" smooth="yes"/>
      <point x="191" y="-50"/>
      <point x="131" y="81"/>
      <point x="131" y="266" type="curve"/>
      <point x="74" y="224"/>
      <point x="25" y="191"/>
      <point x="-15" y="166" type="curve" smooth="yes"/>
      <point x="-55" y="141"/>
      <point x="-81" y="129"/>
    </contour>
    <contour>
      <point x="440" y="882" type="curve"/>
      <point x="427" y="816"/>
      <point x="418" y="748"/>
      <point x="412" y="678" type="curve"/>
      <point x="486" y="755"/>
      <point x="562" y="837"/>
      <point x="633" y="925" type="curve"/>
      <point x="569" y="911"/>
      <point x="504" y="896"/>
    </contour>
  </outline>
</glyph>
<glyph name="OE" format="1">
  <advance width="2306"/>
  <unicode hex="0152"/>
  <outline>
    <contour>
      <point x="352" y="583" type="curve" smooth="yes"/>
      <point x="352" y="292"/>
      <point x="480" y="32"/>
      <point x="766" y="32" type="curve" smooth="yes"/>
      <point x="985" y="32"/>
      <point x="1105" y="206"/>
      <point x="1184" y="352" type="curve"/>
      <point x="1376" y="1280" type="line"/>
      <point x="1352" y="1486"/>
      <point x="1259" y="1664"/>
      <point x="1034" y="1664" type="curve" smooth="yes"/>
      <point x="797" y="1664"/>
      <point x="648" y="1454"/>
      <point x="555" y="1293" type="curve" smooth="yes"/>
      <point x="447" y="1106"/>
      <point x="352" y="864"/>
    </contour>
    <contour>
      <point x="1465" y="390" type="curve" smooth="yes"/>
      <point x="1465" y="209"/>
      <point x="1565" y="128"/>
      <point x="1744" y="128" type="curve" smooth="yes"/>
      <point x="2032" y="128"/>
      <point x="2290" y="253"/>
      <point x="2447" y="392" type="curve" smooth="yes"/>
      <point x="2479" y="420"/>
      <point x="2504" y="448"/>
      <point x="2521" y="477" type="curve"/>
      <point x="2590" y="250" type="line"/>
      <point x="2408" y="56"/>
      <point x="2114" y="-96"/>
      <point x="1750" y="-96" type="curve" smooth="yes"/>
      <point x="1538" y="-96"/>
      <point x="1372" y="-26"/>
      <point x="1280" y="96" type="curve"/>
      <point x="1187" y="-60"/>
      <point x="986" y="-192"/>
      <point x="742" y="-192" type="curve" smooth="yes"/>
      <point x="299" y="-192"/>
      <point x="96" y="187"/>
      <point x="96" y="633" type="curve" smooth="yes"/>
      <point x="96" y="1178"/>
      <point x="338" y="1636"/>
      <point x="722" y="1802" type="curve" smooth="yes"/>
      <point x="805" y="1838"/>
      <point x="896" y="1856"/>
      <point x="995" y="1856" type="curve" smooth="yes"/>
      <point x="1255" y="1856"/>
      <point x="1448" y="1713"/>
      <point x="1536" y="1536" type="curve"/>
      <point x="1634" y="1673"/>
      <point x="1774" y="1770"/>
      <point x="1985" y="1770" type="curve" smooth="yes"/>
      <point x="2205" y="1770"/>
      <point x="2383" y="1673"/>
      <point x="2528" y="1568" type="curve"/>
      <point x="2432" y="1376" type="line"/>
      <point x="2333" y="1475"/>
      <point x="2189" y="1557"/>
      <point x="1998" y="1557" type="curve" smooth="yes"/>
      <point x="1796" y="1557"/>
      <point x="1664" y="1453"/>
      <point x="1632" y="1280" type="curve" smooth="yes"/>
      <point x="1568" y="928" type="line"/>
      <point x="2080" y="928" type="line" smooth="yes"/>
      <point x="2128" y="928"/>
      <point x="2158" y="884"/>
      <point x="2158" y="836" type="curve" smooth="yes"/>
      <point x="2158" y="768"/>
      <point x="2104" y="736"/>
      <point x="2034" y="736" type="curve" smooth="yes"/>
      <point x="1536" y="736" type="line"/>
      <point x="1508" y="624"/>
      <point x="1465" y="512"/>
    </contour>
  </outline>
</glyph>
<glyph name="circumflex" format="1">
  <advance width="864"/>
  <unicode hex="02C6"/>
  <outline>
    <contour>
      <point x="635" y="1020" type="curve" smooth="yes"/>
      <point x="513.407" y="1020"/>
      <point x="516.094" y="1414.16"/>
      <point x="503" y="1532" type="curve"/>
      <point x="439" y="1401"/>
      <point x="377.078" y="1282.34"/>
      <point x="316" y="1152" type="curve" smooth="yes"/>
      <point x="280.078" y="1075.34"/>
      <point x="251" y="1024"/>
      <point x="142" y="1024" type="curve" smooth="yes"/>
      <point x="107" y="1024"/>
      <point x="82" y="1072"/>
      <point x="82" y="1115" type="curve" smooth="yes"/>
      <point x="82" y="1128"/>
      <point x="86.2367" y="1140.17"/>
      <point x="94" y="1153" type="curve" smooth="yes"/>
      <point x="293" y="1482" type="line"/>
      <point x="348" y="1578"/>
      <point x="383" y="1696"/>
      <point x="537" y="1696" type="curve" smooth="yes"/>
      <point x="657" y="1696"/>
      <point x="676.912" y="1559.64"/>
      <point x="702" y="1446" type="curve" smooth="yes"/>
      <point x="725.219" y="1340.83"/>
      <point x="762" y="1251.11"/>
      <point x="762" y="1133" type="curve" smooth="yes"/>
      <point x="762" y="1066"/>
      <point x="713" y="1020"/>
    </contour>
  </outline>
</glyph>
<glyph name="ogonek" format="1">
  <advance width="537"/>
  <unicode hex="02DB"/>
  <outline>
    <contour>
      <point x="384" y="-288" type="curve" smooth="yes"/>
      <point x="448" y="-288"/>
      <point x="476" y="-218"/>
      <point x="531" y="-218" type="curve" smooth="yes"/>
      <point x="559" y="-218"/>
      <point x="573" y="-256"/>
      <point x="573" y="-286" type="curve" smooth="yes"/>
      <point x="573" y="-315"/>
      <point x="563" y="-341"/>
      <point x="544" y="-352" type="curve" smooth="yes"/>
      <point x="477" y="-393"/>
      <point x="390" y="-448"/>
      <point x="288" y="-448" type="curve" smooth="yes"/>
      <point x="187" y="-448"/>
      <point x="128" y="-391"/>
      <point x="128" y="-292" type="curve" smooth="yes"/>
      <point x="128" y="-197"/>
      <point x="196" y="-105"/>
      <point x="224" y="-32" type="curve" smooth="yes"/>
      <point x="243" y="17"/>
      <point x="288" y="32"/>
      <point x="352" y="32" type="curve" smooth="yes"/>
      <point x="390" y="32"/>
      <point x="414" y="19"/>
      <point x="414" y="-15" type="curve" smooth="yes"/>
      <point x="414" y="-78"/>
      <point x="334" y="-156"/>
      <point x="334" y="-236" type="curve" smooth="yes"/>
      <point x="334" y="-269"/>
      <point x="349" y="-288"/>
    </contour>
  </outline>
</glyph>
<glyph name="quoteleft" format="1">
  <advance width="704"/>
  <unicode hex="2018"/>
  <outline>
    <contour>
      <point x="408" y="1855" type="curve" smooth="yes"/>
      <point x="442.739" y="1855"/>
      <point x="468.817" y="1820.36"/>
      <point x="468.817" y="1772.05" type="curve" smooth="yes"/>
      <point x="468.817" y="1767.16"/>
      <point x="468.551" y="1762.14"/>
      <point x="468" y="1757" type="curve" smooth="yes"/>
      <point x="416" y="1312" type="line" smooth="yes"/>
      <point x="406" y="1230"/>
      <point x="352" y="1184"/>
      <point x="288" y="1184" type="curve" smooth="yes"/>
      <point x="220.703" y="1184"/>
      <point x="170" y="1219"/>
      <point x="170" y="1293" type="curve" smooth="yes"/>
      <point x="170" y="1447"/>
      <point x="259" y="1629"/>
      <point x="306" y="1760" type="curve"/>
      <point x="321.482" y="1809"/>
      <point x="356.089" y="1855"/>
    </contour>
  </outline>
</glyph>
<glyph name="quotedblleft" format="1">
  <advance width="1184"/>
  <unicode hex="201C"/>
  <outline>
    <contour>
      <point x="408" y="1855" type="curve" smooth="yes"/>
      <point x="459" y="1855"/>
      <point x="488" y="1813"/>
      <point x="488" y="1757" type="curve" smooth="yes"/>
      <point x="488" y="1602"/>
      <point x="456" y="1463"/>
      <point x="456" y="1312" type="curve" smooth="yes"/>
      <point x="456" y="1229"/>
      <point x="372" y="1184"/>
      <point x="288" y="1184" type="curve" smooth="yes"/>
      <point x="215" y="1184"/>
      <point x="160" y="1219"/>
      <point x="160" y="1293" type="curve" smooth="yes"/>
      <point x="160" y="1447"/>
      <point x="249" y="1629"/>
      <point x="296" y="1760" type="curve" smooth="yes"/>
      <point x="313" y="1809"/>
      <point x="351" y="1855"/>
    </contour>
    <contour>
      <point x="792" y="1855" type="curve" smooth="yes"/>
      <point x="843" y="1855"/>
      <point x="872" y="1813"/>
      <point x="872" y="1757" type="curve" smooth="yes"/>
      <point x="872" y="1602"/>
      <point x="840" y="1463"/>
      <point x="840" y="1312" type="curve" smooth="yes"/>
      <point x="840" y="1229"/>
      <point x="756" y="1184"/>
      <point x="672" y="1184" type="curve" smooth="yes"/>
      <point x="599" y="1184"/>
      <point x="544" y="1219"/>
      <point x="544" y="1293" type="curve" smooth="yes"/>
      <point x="544" y="1447"/>
      <point x="633" y="1629"/>
      <point x="680" y="1760" type="curve" smooth="yes"/>
      <point x="697" y="1809"/>
      <point x="735" y="1855"/>
    </contour>
  </outline>
</glyph>
<glyph name="guilsinglright" format="1">
  <advance width="1089"/>
  <unicode hex="203A"/>
  <outline>
    <contour>
      <point x="175" y="896" type="curve" smooth="yes"/>
      <point x="175" y="958"/>
      <point x="225" y="999"/>
      <point x="287" y="999" type="curve" smooth="yes"/>
      <point x="307" y="999"/>
      <point x="324" y="995"/>
      <point x="340" y="988" type="curve" smooth="yes"/>
      <point x="838" y="778" type="line"/>
      <point x="937" y="740"/>
      <point x="1039" y="678"/>
      <point x="1039" y="570" type="curve" smooth="yes"/>
      <point x="1039" y="452"/>
      <point x="975" y="398"/>
      <point x="896" y="352" type="curve"/>
      <point x="737" y="262"/>
      <point x="563" y="165"/>
      <point x="382" y="87" type="curve" smooth="yes"/>
      <point x="359" y="78"/>
      <point x="338" y="73"/>
      <point x="318" y="73" type="curve" smooth="yes"/>
      <point x="264" y="73"/>
      <point x="206" y="107"/>
      <point x="206" y="158" type="curve" smooth="yes"/>
      <point x="206" y="236"/>
      <point x="277" y="287"/>
      <point x="331" y="313" type="curve" smooth="yes"/>
      <point x="800" y="544" type="line"/>
      <point x="274" y="773" type="line"/>
      <point x="222" y="797"/>
      <point x="175" y="835"/>
    </contour>
  </outline>
</glyph>
<glyph name="minus" format="1">
  <advance width="1216"/>
  <unicode hex="2212"/>
  <outline>
    <contour>
      <point x="1024" y="691" type="curve" smooth="yes"/>
      <point x="1024" y="618"/>
      <point x="988" y="576"/>
      <point x="917" y="576" type="curve" smooth="yes"/>
      <point x="315" y="576" type="line" smooth="yes"/>
      <point x="250" y="576"/>
      <point x="192" y="604"/>
      <point x="192" y="666" type="curve" smooth="yes"/>
      <point x="192" y="734"/>
      <point x="259" y="768"/>
      <point x="331" y="768" type="curve" smooth="yes"/>
      <point x="929" y="768" type="line" smooth="yes"/>
      <point x="985" y="768"/>
      <point x="1024" y="741"/>
    </contour>
  </outline>
</glyph>
<glyph name="ff" format="1">
  <advance width="1393"/>
  <unicode hex="FB00"/>
  <outline>
    <contour>
      <point x="302" y="-379" type="curve" smooth="yes"/>
      <point x="421" y="-379"/>
      <point x="422" y="-173"/>
      <point x="422" y="-62" type="curve" smooth="yes"/>
      <point x="422" y="-57" type="line" smooth="yes"/>
      <point x="422" y="187"/>
      <point x="358" y="384"/>
      <point x="286" y="522" type="curve"/>
      <point x="277" y="330"/>
      <point x="259" y="144"/>
      <point x="259" y="-47" type="curve" smooth="yes"/>
      <point x="259" y="-187"/>
      <point x="263" y="-379"/>
    </contour>
    <contour>
      <point x="795" y="1529" type="curve" smooth="yes"/>
      <point x="795" y="1583"/>
      <point x="786" y="1631"/>
      <point x="745" y="1631" type="curve" smooth="yes"/>
      <point x="516" y="1631"/>
      <point x="356" y="775"/>
      <point x="330" y="686" type="curve"/>
      <point x="486" y="879"/>
      <point x="795" y="1266"/>
    </contour>
    <contour>
      <point x="1016" y="-455" type="curve" smooth="yes"/>
      <point x="811.268" y="-455"/>
      <point x="770.197" y="-188.726"/>
      <point x="770.197" y="51.8506" type="curve" smooth="yes"/>
      <point x="770.197" y="189.216"/>
      <point x="776.479" y="323.862"/>
      <point x="780" y="460" type="curve"/>
      <point x="701.715" y="434.7"/>
      <point x="599.861" y="429.2"/>
      <point x="514" y="427" type="curve"/>
      <point x="570" y="281"/>
      <point x="633" y="100"/>
      <point x="633" y="-119" type="curve" smooth="yes"/>
      <point x="633" y="-320"/>
      <point x="530" y="-604"/>
      <point x="270" y="-604" type="curve" smooth="yes"/>
      <point x="62" y="-604"/>
      <point x="34" y="-276"/>
      <point x="34" y="-38" type="curve" smooth="yes"/>
      <point x="34" y="521"/>
      <point x="226" y="1856"/>
      <point x="782" y="1856" type="curve" smooth="yes"/>
      <point x="907" y="1856"/>
      <point x="982" y="1762"/>
      <point x="982" y="1624" type="curve" smooth="yes"/>
      <point x="982" y="1243"/>
      <point x="642" y="833"/>
      <point x="445" y="603" type="curve"/>
      <point x="474" y="593"/>
      <point x="520" y="587"/>
      <point x="559" y="587" type="curve" smooth="yes"/>
      <point x="663.71" y="587"/>
      <point x="720.897" y="602"/>
      <point x="795" y="626" type="curve"/>
      <point x="878" y="1127"/>
      <point x="1079.12" y="1706"/>
      <point x="1459" y="1706" type="curve" smooth="yes"/>
      <point x="1584" y="1706"/>
      <point x="1659" y="1612"/>
      <point x="1659" y="1474" type="curve" smooth="yes"/>
      <point x="1659" y="1149"/>
      <point x="1306.7" y="799"/>
      <point x="1102" y="603" type="curve"/>
      <point x="1131" y="593"/>
      <point x="1177" y="587"/>
      <point x="1216" y="587" type="curve" smooth="yes"/>
      <point x="1408.25" y="587"/>
      <point x="1490.49" y="666.919"/>
      <point x="1650" y="785" type="curve" smooth="yes"/>
      <point x="1656.38" y="789.919"/>
      <point x="1662" y="791"/>
      <point x="1668" y="791" type="curve" smooth="yes"/>
      <point x="1691" y="791"/>
      <point x="1704" y="761"/>
      <point x="1704" y="722" type="curve" smooth="yes"/>
      <point x="1704" y="461"/>
      <point x="1397.19" y="436"/>
      <point x="1171" y="427" type="curve"/>
      <point x="1231.36" y="292"/>
      <point x="1300" y="124"/>
      <point x="1300" y="-79" type="curve" smooth="yes"/>
      <point x="1300" y="-228"/>
      <point x="1256" y="-455"/>
    </contour>
    <contour>
      <point x="1019" y="-229" type="curve" smooth="yes"/>
      <point x="1085" y="-229"/>
      <point x="1107" y="-159"/>
      <point x="1107" y="-64" type="curve" smooth="yes"/>
      <point x="1107" y="148"/>
      <point x="970.239" y="474"/>
      <point x="953" y="502" type="curve"/>
      <point x="953.959" y="438.279"/>
      <point x="951.916" y="370.638"/>
      <point x="951.916" y="271.306" type="curve" smooth="yes"/>
      <point x="951.916" y="51.6007"/>
      <point x="960.121" y="-229"/>
    </contour>
    <contour>
      <point x="1474" y="1414" type="curve" smooth="yes"/>
      <point x="1474" y="1454"/>
      <point x="1455" y="1482"/>
      <point x="1412" y="1482" type="curve" smooth="yes"/>
      <point x="1179.08" y="1482"/>
      <point x="1013.49" y="760"/>
      <point x="987" y="686" type="curve"/>
      <point x="1135.17" y="794"/>
      <point x="1474" y="1227"/>
    </contour>
  </outline>
</glyph>
<glyph name="ck" format="1">
  <advance width="1793"/>
  <outline>
    <contour>
      <point x="1200" y="1430" type="curve"/>
      <point x="1292" y="1505"/>
      <point x="1373" y="1651"/>
      <point x="1373" y="1707" type="curve" smooth="yes"/>
      <point x="1373" y="1721"/>
      <point x="1368" y="1729"/>
      <point x="1357" y="1729" type="curve" smooth="yes"/>
      <point x="1286" y="1729"/>
      <point x="1235" y="1546"/>
    </contour>
    <contour>
      <point x="1467" y="-4" type="curve" smooth="yes"/>
      <point x="1324" y="-4"/>
      <point x="1209" y="118"/>
      <point x="1209" y="266" type="curve" smooth="yes"/>
      <point x="1209" y="483"/>
      <point x="1573" y="528"/>
      <point x="1573" y="651" type="curve" smooth="yes"/>
      <point x="1573" y="691"/>
      <point x="1526" y="701"/>
      <point x="1487" y="701" type="curve" smooth="yes"/>
      <point x="1463" y="701"/>
      <point x="1442" y="697"/>
      <point x="1435" y="694" type="curve" smooth="yes"/>
      <point x="1289" y="624"/>
      <point x="1083" y="-9"/>
      <point x="920" y="-9" type="curve" smooth="yes"/>
      <point x="859" y="-9"/>
      <point x="850" y="140"/>
      <point x="850" y="230" type="curve" smooth="yes"/>
      <point x="850" y="569"/>
      <point x="864" y="915"/>
      <point x="924" y="1217" type="curve"/>
      <point x="793" y="1234"/>
      <point x="620" y="1288"/>
      <point x="501" y="1288" type="curve" smooth="yes"/>
      <point x="432" y="1288"/>
      <point x="381" y="1238"/>
      <point x="381" y="1177" type="curve" smooth="yes"/>
      <point x="381" y="1082"/>
      <point x="439" y="1025"/>
      <point x="509" y="958" type="curve"/>
      <point x="626" y="946"/>
      <point x="748" y="877"/>
      <point x="748" y="782" type="curve" smooth="yes"/>
      <point x="748" y="703"/>
      <point x="672" y="650"/>
      <point x="631" y="650" type="curve" smooth="yes"/>
      <point x="544" y="650"/>
      <point x="462" y="768"/>
      <point x="462" y="768" type="curve"/>
      <point x="344" y="768"/>
      <point x="320" y="566"/>
      <point x="320" y="414" type="curve" smooth="yes"/>
      <point x="320" y="249"/>
      <point x="399" y="190"/>
      <point x="488" y="190" type="curve" smooth="yes"/>
      <point x="559" y="190"/>
      <point x="636" y="227"/>
      <point x="685" y="277" type="curve" smooth="yes"/>
      <point x="700" y="292"/>
      <point x="714" y="298"/>
      <point x="728" y="298" type="curve" smooth="yes"/>
      <point x="760" y="298"/>
      <point x="786" y="266"/>
      <point x="786" y="236" type="curve" smooth="yes"/>
      <point x="786" y="231"/>
      <point x="786" y="226"/>
      <point x="784" y="221" type="curve" smooth="yes"/>
      <point x="744" y="108"/>
      <point x="655" y="0"/>
      <point x="437" y="0" type="curve" smooth="yes"/>
      <point x="199" y="0"/>
      <point x="64" y="177"/>
      <point x="64" y="413" type="curve" smooth="yes"/>
      <point x="64" y="631"/>
      <point x="159" y="855"/>
      <point x="336" y="932" type="curve"/>
      <point x="261" y="1015"/>
      <point x="188" y="1100"/>
      <point x="188" y="1173" type="curve" smooth="yes"/>
      <point x="188" y="1370"/>
      <point x="425" y="1485"/>
      <point x="584" y="1485" type="curve" smooth="yes"/>
      <point x="725" y="1485"/>
      <point x="812" y="1467"/>
      <point x="974" y="1420" type="curve"/>
      <point x="1006" y="1526"/>
      <point x="1047" y="1623"/>
      <point x="1097" y="1706" type="curve" smooth="yes"/>
      <point x="1155" y="1803"/>
      <point x="1241" y="1928"/>
      <point x="1366" y="1928" type="curve" smooth="yes"/>
      <point x="1512" y="1928"/>
      <point x="1584" y="1809"/>
      <point x="1584" y="1696" type="curve" smooth="yes"/>
      <point x="1584" y="1508"/>
      <point x="1416" y="1268"/>
      <point x="1139" y="1219" type="curve"/>
      <point x="1099" y="1059"/>
      <point x="1079" y="885"/>
      <point x="1069" y="710" type="curve" smooth="yes"/>
      <point x="1053" y="419" type="line"/>
      <point x="1182" y="615"/>
      <point x="1274" y="941"/>
      <point x="1555" y="941" type="curve" smooth="yes"/>
      <point x="1695" y="941"/>
      <point x="1794" y="851"/>
      <point x="1794" y="716" type="curve" smooth="yes"/>
      <point x="1794" y="704" type="line" smooth="yes"/>
      <point x="1794" y="426"/>
      <point x="1410" y="380"/>
      <point x="1410" y="246" type="curve" smooth="yes"/>
      <point x="1410" y="212"/>
      <point x="1445" y="182"/>
      <point x="1487" y="182" type="curve" smooth="yes"/>
      <point x="1611" y="182"/>
      <point x="1832" y="410"/>
      <point x="1886" y="462" type="curve"/>
      <point x="1922" y="441"/>
      <point x="1983" y="387"/>
      <point x="1983" y="338" type="curve" smooth="yes"/>
      <point x="1983" y="296"/>
      <point x="1977" y="262"/>
      <point x="1966" y="261" type="curve"/>
      <point x="1868" y="151"/>
      <point x="1648" y="-4"/>
    </contour>
  </outline>
</glyph>
<glyph name="f.init" format="1">
  <advance width="867"/>
  <outline>
    <contour>
      <point x="1170" y="652" type="curve" smooth="yes"/>
      <point x="1170" y="453"/>
      <point x="896.003" y="434"/>
      <point x="694.003" y="427" type="curve"/>
      <point x="750.003" y="305"/>
      <point x="813.003" y="154"/>
      <point x="813.003" y="-29" type="curve" smooth="yes"/>
      <point x="813.003" y="-267"/>
      <point x="710.003" y="-604"/>
      <point x="450.003" y="-604" type="curve" smooth="yes"/>
      <point x="242.003" y="-604"/>
      <point x="214.003" y="-276"/>
      <point x="214.003" y="-38" type="curve" smooth="yes"/>
      <point x="214.003" y="56.4259"/>
      <point x="219.481" y="172.994"/>
      <point x="231.267" y="301.529" type="curve"/>
      <point x="137.933" y="224.887"/>
      <point x="37.6114" y="154.7"/>
      <point x="-75.584" y="85.4131" type="curve" smooth="yes"/>
      <point x="-82.9025" y="80.9335"/>
      <point x="-90.0048" y="77.4721"/>
      <point x="-98.5061" y="77.4721" type="curve" smooth="yes"/>
      <point x="-143.415" y="77.4721"/>
      <point x="-207.13" y="145.579"/>
      <point x="-207.13" y="190.531" type="curve" smooth="yes"/>
      <point x="-207.13" y="202.285"/>
      <point x="-202.773" y="212.457"/>
      <point x="-192.584" y="219.413" type="curve" smooth="yes"/>
      <point x="20.4611" y="364.859"/>
      <point x="132.941" y="441.742"/>
      <point x="263.245" y="569.836" type="curve"/>
      <point x="350.558" y="1165.56"/>
      <point x="562.153" y="1856"/>
      <point x="962.003" y="1856" type="curve" smooth="yes"/>
      <point x="1087" y="1856"/>
      <point x="1162" y="1762"/>
      <point x="1162" y="1624" type="curve" smooth="yes"/>
      <point x="1162" y="1243"/>
      <point x="822.003" y="833"/>
      <point x="625.003" y="603" type="curve"/>
      <point x="654.003" y="593"/>
      <point x="700.003" y="587"/>
      <point x="739.003" y="587" type="curve" smooth="yes"/>
      <point x="906.003" y="587"/>
      <point x="978.003" y="638"/>
      <point x="1116" y="715" type="curve" smooth="yes"/>
      <point x="1123" y="719"/>
      <point x="1128" y="721"/>
      <point x="1134" y="721" type="curve" smooth="yes"/>
      <point x="1157" y="721"/>
      <point x="1170" y="691"/>
    </contour>
    <contour>
      <point x="482.003" y="-379" type="curve" smooth="yes"/>
      <point x="601.003" y="-379"/>
      <point x="602.003" y="-173"/>
      <point x="602.003" y="-62" type="curve" smooth="yes"/>
      <point x="602.003" y="-57" type="line" smooth="yes"/>
      <point x="602.003" y="187"/>
      <point x="538.003" y="384"/>
      <point x="466.003" y="522" type="curve"/>
      <point x="457.003" y="330"/>
      <point x="439.003" y="144"/>
      <point x="439.003" y="-47" type="curve" smooth="yes"/>
      <point x="439.003" y="-187"/>
      <point x="443.003" y="-379"/>
    </contour>
    <contour>
      <point x="975.003" y="1529" type="curve" smooth="yes"/>
      <point x="975.003" y="1583"/>
      <point x="966.003" y="1631"/>
      <point x="925.003" y="1631" type="curve" smooth="yes"/>
      <point x="696.003" y="1631"/>
      <point x="536.003" y="775"/>
      <point x="510.003" y="686" type="curve"/>
      <point x="666.003" y="879"/>
      <point x="975.003" y="1266"/>
    </contour>
  </outline>
</glyph>
<glyph name="for" format="1">
  <advance width="2035"/>
  <outline>
    <contour>
      <point x="227" y="309" type="line"/>
      <point x="196" y="300"/>
      <point x="-106" y="268"/>
      <point x="-106" y="138" type="curve" smooth="yes"/>
      <point x="-106" y="133"/>
      <point x="-101" y="130"/>
      <point x="-91" y="129" type="curve"/>
      <point x="49" y="163"/>
      <point x="182" y="179"/>
      <point x="270" y="190" type="curve"/>
    </contour>
    <contour>
      <point x="875" y="425" type="line"/>
      <point x="1129" y="489"/>
      <point x="1372" y="530"/>
      <point x="1699" y="587" type="curve" smooth="yes"/>
      <point x="1827" y="609"/>
      <point x="1922" y="628"/>
      <point x="2023" y="628" type="curve" smooth="yes"/>
      <point x="2105" y="628"/>
      <point x="2190" y="622"/>
      <point x="2295" y="617" type="curve" smooth="yes"/>
      <point x="2313" y="616"/>
      <point x="2329" y="589"/>
      <point x="2329" y="571" type="curve" smooth="yes"/>
      <point x="2329" y="564"/>
      <point x="2326" y="558"/>
      <point x="2319" y="557" type="curve" smooth="yes"/>
      <point x="1991" y="482"/>
      <point x="1802" y="486"/>
      <point x="1471" y="422" type="curve" smooth="yes"/>
      <point x="1235" y="376"/>
      <point x="1047" y="345"/>
      <point x="864" y="302" type="curve"/>
    </contour>
    <contour>
      <point x="1164" y="1110" type="curve" smooth="yes"/>
      <point x="1164" y="1155"/>
      <point x="1200" y="1181"/>
      <point x="1200" y="1211" type="curve" smooth="yes"/>
      <point x="1200" y="1213"/>
      <point x="1197" y="1213"/>
      <point x="1189" y="1213" type="curve" smooth="yes"/>
      <point x="1096" y="1213"/>
      <point x="1032" y="1062"/>
      <point x="1032" y="942" type="curve" smooth="yes"/>
      <point x="1032" y="845"/>
      <point x="1071" y="758"/>
      <point x="1190" y="758" type="curve" smooth="yes"/>
      <point x="1261" y="758"/>
      <point x="1305" y="892"/>
      <point x="1305" y="983" type="curve"/>
      <point x="1247" y="1009"/>
      <point x="1164" y="1045"/>
    </contour>
    <contour>
      <point x="533" y="54" type="curve" smooth="yes"/>
      <point x="298" y="54"/>
      <point x="297" y="391"/>
      <point x="297" y="616" type="curve" smooth="yes"/>
      <point x="297" y="622" type="line" smooth="yes"/>
      <point x="297" y="1141"/>
      <point x="441" y="2024"/>
      <point x="731" y="2024" type="curve" smooth="yes"/>
      <point x="860" y="2024"/>
      <point x="939" y="1940"/>
      <point x="939" y="1816" type="curve" smooth="yes"/>
      <point x="939" y="1517"/>
      <point x="706" y="1195"/>
      <point x="571" y="1014" type="curve"/>
      <point x="594" y="1012"/>
      <point x="632" y="1011"/>
      <point x="662" y="1011" type="curve" smooth="yes"/>
      <point x="770" y="1011"/>
      <point x="816" y="1063"/>
      <point x="905" y="1142" type="curve"/>
      <point x="961" y="1281"/>
      <point x="1066" y="1369"/>
      <point x="1212" y="1369" type="curve" smooth="yes"/>
      <point x="1374" y="1369"/>
      <point x="1461" y="1260"/>
      <point x="1461" y="1123" type="curve" smooth="yes"/>
      <point x="1461" y="1115"/>
      <point x="1465" y="1112"/>
      <point x="1473" y="1112" type="curve" smooth="yes"/>
      <point x="1547" y="1112"/>
      <point x="1574" y="1227"/>
      <point x="1627" y="1227" type="curve"/>
      <point x="1631" y="1228" type="line"/>
      <point x="1632" y="1228" type="line"/>
      <point x="1646" y="1302"/>
      <point x="1648" y="1415"/>
      <point x="1730" y="1415" type="curve" smooth="yes"/>
      <point x="1792" y="1415"/>
      <point x="1790" y="1400"/>
      <point x="1795" y="1350" type="curve" smooth="yes"/>
      <point x="1802" y="1281" type="line"/>
      <point x="1802" y="1254"/>
      <point x="1808" y="1227"/>
      <point x="1812" y="1200" type="curve"/>
      <point x="1820" y="1201" type="line"/>
      <point x="1857" y="1293"/>
      <point x="1904" y="1446"/>
      <point x="2013" y="1446" type="curve" smooth="yes"/>
      <point x="2061" y="1446"/>
      <point x="2098" y="1420"/>
      <point x="2098" y="1380" type="curve" smooth="yes"/>
      <point x="2098" y="1345"/>
      <point x="2091" y="1291"/>
      <point x="2091" y="1239" type="curve" smooth="yes"/>
      <point x="2091" y="1164"/>
      <point x="2105" y="1094"/>
      <point x="2170" y="1094" type="curve" smooth="yes"/>
      <point x="2209" y="1094"/>
      <point x="2229" y="1195"/>
      <point x="2276" y="1195" type="curve" smooth="yes"/>
      <point x="2298" y="1195"/>
      <point x="2306" y="1173"/>
      <point x="2306" y="1147" type="curve" smooth="yes"/>
      <point x="2306" y="1104"/>
      <point x="2302" y="1048"/>
      <point x="2302" y="1048" type="curve"/>
      <point x="2245" y="974"/>
      <point x="2184" y="942"/>
      <point x="2128" y="942" type="curve" smooth="yes"/>
      <point x="2033" y="942"/>
      <point x="1954" y="1035"/>
      <point x="1931" y="1178" type="curve"/>
      <point x="1824" y="1021" type="line"/>
      <point x="1819" y="773" type="line" smooth="yes"/>
      <point x="1818" y="723"/>
      <point x="1791" y="657"/>
      <point x="1742" y="657" type="curve" smooth="yes"/>
      <point x="1642" y="657"/>
      <point x="1625" y="731"/>
      <point x="1625" y="811" type="curve" smooth="yes"/>
      <point x="1625" y="890"/>
      <point x="1622" y="970"/>
      <point x="1617" y="1049" type="curve"/>
      <point x="1575" y="996"/>
      <point x="1516" y="955"/>
      <point x="1448" y="955" type="curve" smooth="yes"/>
      <point x="1440" y="955"/>
      <point x="1433" y="955"/>
      <point x="1429" y="957" type="curve"/>
      <point x="1402" y="808"/>
      <point x="1329" y="604"/>
      <point x="1175" y="604" type="curve" smooth="yes"/>
      <point x="969" y="604"/>
      <point x="881" y="752"/>
      <point x="881" y="919" type="curve" smooth="yes"/>
      <point x="881" y="933"/>
      <point x="880" y="946"/>
      <point x="878" y="959" type="curve"/>
      <point x="813" y="898"/>
      <point x="719" y="886"/>
      <point x="640" y="882" type="curve"/>
      <point x="706" y="764"/>
      <point x="781" y="617"/>
      <point x="781" y="439" type="curve" smooth="yes"/>
      <point x="781" y="280"/>
      <point x="711" y="54"/>
    </contour>
    <contour>
      <point x="769" y="1768" type="curve" smooth="yes"/>
      <point x="769" y="1808"/>
      <point x="761" y="1843"/>
      <point x="721" y="1843" type="curve" smooth="yes"/>
      <point x="585" y="1843"/>
      <point x="490" y="1143"/>
      <point x="474" y="1069" type="curve"/>
      <point x="573" y="1229"/>
      <point x="769" y="1551"/>
    </contour>
    <contour>
      <point x="539" y="234" type="curve" smooth="yes"/>
      <point x="606" y="234"/>
      <point x="607" y="401"/>
      <point x="607" y="491" type="curve" smooth="yes"/>
      <point x="607" y="495" type="line" smooth="yes"/>
      <point x="607" y="629"/>
      <point x="544" y="736"/>
      <point x="474" y="811" type="curve"/>
      <point x="476" y="702"/>
      <point x="479" y="597"/>
      <point x="479" y="489" type="curve" smooth="yes"/>
      <point x="479" y="381"/>
      <point x="484" y="234"/>
    </contour>
  </outline>
</glyph>
<glyph name="i_x" format="1">
  <advance width="1436"/>
  <outline>
    <contour>
      <point x="531.487" y="286.3" type="curve" smooth="yes"/>
      <point x="578.307" y="286.3"/>
      <point x="603.436" y="236.046"/>
      <point x="635.235" y="236.046" type="curve" smooth="yes"/>
      <point x="680.406" y="236.046"/>
      <point x="778.225" y="373.219"/>
      <point x="811" y="430" type="curve"/>
      <point x="749.667" y="551.543"/>
      <point x="699" y="679.965"/>
      <point x="651" y="821" type="curve" smooth="yes"/>
      <point x="650" y="825"/>
      <point x="649" y="828"/>
      <point x="649" y="831" type="curve" smooth="yes"/>
      <point x="649" y="874.609"/>
      <point x="731.898" y="916"/>
      <point x="786" y="916" type="curve" smooth="yes"/>
      <point x="896.082" y="916"/>
      <point x="941.726" y="687.375"/>
      <point x="982" y="593" type="curve"/>
      <point x="1057.92" y="691.896"/>
      <point x="1142.7" y="786.471"/>
      <point x="1242" y="864" type="curve" smooth="yes"/>
      <point x="1266.46" y="883.101"/>
      <point x="1294" y="895"/>
      <point x="1329" y="895" type="curve" smooth="yes"/>
      <point x="1391" y="895"/>
      <point x="1423" y="842"/>
      <point x="1423" y="780" type="curve" smooth="yes"/>
      <point x="1423" y="732"/>
      <point x="1401.52" y="692.743"/>
      <point x="1370" y="672" type="curve" smooth="yes"/>
      <point x="1258.09" y="598.353"/>
      <point x="1158.93" y="504.059"/>
      <point x="1070" y="406" type="curve"/>
      <point x="1102.52" y="356.169"/>
      <point x="1173.15" y="223"/>
      <point x="1255" y="223" type="curve" smooth="yes"/>
      <point x="1342.8" y="223"/>
      <point x="1438.22" y="288.884"/>
      <point x="1501" y="344.281" type="curve" smooth="yes"/>
      <point x="1519.04" y="361.301"/>
      <point x="1535.86" y="366.272"/>
      <point x="1548.06" y="366.272" type="curve" smooth="yes"/>
      <point x="1577.85" y="366.272"/>
      <point x="1588.08" y="327.523"/>
      <point x="1588.08" y="286.675" type="curve" smooth="yes"/>
      <point x="1588.08" y="244.976"/>
      <point x="1577.42" y="201.089"/>
      <point x="1566" y="194" type="curve"/>
      <point x="1474.12" y="106.949"/>
      <point x="1324.5" y="0"/>
      <point x="1146" y="0" type="curve" smooth="yes"/>
      <point x="1045" y="0"/>
      <point x="964" y="138"/>
      <point x="908" y="235" type="curve"/>
      <point x="849.106" y="164.077"/>
      <point x="754.399" y="0"/>
      <point x="644" y="0" type="curve" smooth="yes"/>
      <point x="579.141" y="0"/>
      <point x="536.336" y="29.4707"/>
      <point x="509.146" y="74.4805" type="curve"/>
      <point x="442.857" y="34.5581"/>
      <point x="360.866" y="0"/>
      <point x="274" y="0" type="curve" smooth="yes"/>
      <point x="143" y="0"/>
      <point x="88" y="71"/>
      <point x="88" y="201" type="curve" smooth="yes"/>
      <point x="88" y="438"/>
      <point x="190.38" y="660.092"/>
      <point x="244" y="863" type="curve" smooth="yes"/>
      <point x="260.937" y="927.092"/>
      <point x="327.623" y="960"/>
      <point x="391" y="960" type="curve" smooth="yes"/>
      <point x="439" y="960"/>
      <point x="463" y="945"/>
      <point x="463" y="903" type="curve" smooth="yes"/>
      <point x="463" y="695"/>
      <point x="327" y="514"/>
      <point x="327" y="290" type="curve" smooth="yes"/>
      <point x="327" y="79.0965"/>
      <point x="465.39" y="286.3"/>
    </contour>
    <contour>
      <point x="448" y="1089" type="curve" smooth="yes"/>
      <point x="341" y="1089"/>
      <point x="276" y="1140"/>
      <point x="276" y="1241" type="curve" smooth="yes"/>
      <point x="276" y="1345"/>
      <point x="362" y="1408"/>
      <point x="472" y="1408" type="curve" smooth="yes"/>
      <point x="564.235" y="1408"/>
      <point x="632" y="1366"/>
      <point x="632" y="1268" type="curve" smooth="yes"/>
      <point x="632" y="1155"/>
      <point x="558.021" y="1089"/>
    </contour>
  </outline>
</glyph>
<glyph name="m.fina" format="1">
  <advance width="1336"/>
  <outline>
    <contour>
      <point x="1276.15" y="191.507" type="curve" smooth="yes"/>
      <point x="1364.75" y="191.507"/>
      <point x="1447.41" y="270.942"/>
      <point x="1536.91" y="310.942" type="curve" smooth="yes"/>
      <point x="1538.71" y="311.746"/>
      <point x="1540.52" y="312.129"/>
      <point x="1542.34" y="312.129" type="curve" smooth="yes"/>
      <point x="1566.26" y="312.129"/>
      <point x="1591.02" y="245.95"/>
      <point x="1591.02" y="199.216" type="curve" smooth="yes"/>
      <point x="1591.02" y="84.2303"/>
      <point x="1312.59" y="-9.23796"/>
      <point x="1208.35" y="-9.23796" type="curve" smooth="yes"/>
      <point x="1034.26" y="-9.23796"/>
      <point x="981" y="138.676"/>
      <point x="981" y="287" type="curve" smooth="yes"/>
      <point x="981" y="391.621"/>
      <point x="989.18" y="491.097"/>
      <point x="1010" y="588" type="curve"/>
      <point x="995" y="588" type="line"/>
      <point x="792" y="71" type="line" smooth="yes"/>
      <point x="771" y="19"/>
      <point x="729" y="0"/>
      <point x="660" y="0" type="curve" smooth="yes"/>
      <point x="574" y="0"/>
      <point x="562" y="101"/>
      <point x="562" y="187" type="curve" smooth="yes"/>
      <point x="562" y="327"/>
      <point x="593" y="452"/>
      <point x="616" y="585" type="curve"/>
      <point x="601" y="585" type="line"/>
      <point x="489.645" y="445.807"/>
      <point x="435.996" y="251.948"/>
      <point x="346" y="70" type="curve" smooth="yes"/>
      <point x="324" y="26"/>
      <point x="297" y="0"/>
      <point x="241" y="0" type="curve" smooth="yes"/>
      <point x="132" y="0"/>
      <point x="114" y="100"/>
      <point x="114" y="209" type="curve" smooth="yes"/>
      <point x="114" y="439"/>
      <point x="159" y="678"/>
      <point x="218" y="862" type="curve" smooth="yes"/>
      <point x="236" y="916"/>
      <point x="282" y="964"/>
      <point x="346" y="964" type="curve" smooth="yes"/>
      <point x="400" y="964"/>
      <point x="443" y="926"/>
      <point x="443" y="868" type="curve" smooth="yes"/>
      <point x="443" y="746.784"/>
      <point x="379.358" y="594.019"/>
      <point x="363" y="518" type="curve"/>
      <point x="374" y="506" type="line"/>
      <point x="443" y="657"/>
      <point x="539" y="834"/>
      <point x="660" y="933" type="curve" smooth="yes"/>
      <point x="682" y="951"/>
      <point x="707" y="960"/>
      <point x="737" y="960" type="curve" smooth="yes"/>
      <point x="794" y="960"/>
      <point x="839" y="924"/>
      <point x="839" y="866" type="curve" smooth="yes"/>
      <point x="839" y="812"/>
      <point x="784" y="518"/>
      <point x="784" y="518" type="curve"/>
      <point x="795" y="506" type="line"/>
      <point x="865" y="668"/>
      <point x="953.203" y="824.8"/>
      <point x="1057" y="932" type="curve" smooth="yes"/>
      <point x="1075.2" y="950.8"/>
      <point x="1100" y="960"/>
      <point x="1128" y="960" type="curve" smooth="yes"/>
      <point x="1189" y="960"/>
      <point x="1240" y="927"/>
      <point x="1240" y="866" type="curve" smooth="yes"/>
      <point x="1240" y="778"/>
      <point x="1194" y="422"/>
      <point x="1194" y="311" type="curve" smooth="yes"/>
      <point x="1194" y="246.674"/>
      <point x="1202.21" y="191.507"/>
    </contour>
  </outline>
</glyph>
<glyph name="n.fina" format="1">
  <advance width="1046"/>
  <outline>
    <contour>
      <point x="1236" y="234.692" type="curve" smooth="yes"/>
      <point x="1236" y="73.165"/>
      <point x="936.825" y="-20.8984"/>
      <point x="808.623" y="-20.8984" type="curve" smooth="yes"/>
      <point x="636.944" y="-20.8984"/>
      <point x="594.755" y="134.09"/>
      <point x="594.755" y="302.787" type="curve" smooth="yes"/>
      <point x="594.755" y="397.028"/>
      <point x="607.997" y="499.182"/>
      <point x="621.811" y="591" type="curve"/>
      <point x="605.811" y="591" type="line"/>
      <point x="343.811" y="71" type="line" smooth="yes"/>
      <point x="321.811" y="27"/>
      <point x="296.811" y="0"/>
      <point x="240.811" y="0" type="curve" smooth="yes"/>
      <point x="131.811" y="0"/>
      <point x="99.8105" y="101"/>
      <point x="113.811" y="209" type="curve" smooth="yes"/>
      <point x="197.811" y="852" type="line" smooth="yes"/>
      <point x="205.811" y="912"/>
      <point x="252.811" y="960"/>
      <point x="325.811" y="960" type="curve" smooth="yes"/>
      <point x="398.811" y="960"/>
      <point x="421.811" y="911"/>
      <point x="421.811" y="839" type="curve" smooth="yes"/>
      <point x="421.811" y="739"/>
      <point x="381.811" y="640"/>
      <point x="381.811" y="544" type="curve"/>
      <point x="401.811" y="544" type="line"/>
      <point x="457.811" y="647"/>
      <point x="516.811" y="765"/>
      <point x="575.811" y="866" type="curve" smooth="yes"/>
      <point x="611.811" y="926"/>
      <point x="656.811" y="960"/>
      <point x="739.811" y="960" type="curve" smooth="yes"/>
      <point x="816.811" y="960"/>
      <point x="848.811" y="886"/>
      <point x="848.811" y="802" type="curve" smooth="yes"/>
      <point x="848.811" y="636"/>
      <point x="802.811" y="471"/>
      <point x="802.811" y="279" type="curve" smooth="yes"/>
      <point x="802.811" y="201.909"/>
      <point x="836.007" y="173"/>
      <point x="883.811" y="173" type="curve" smooth="yes"/>
      <point x="995.783" y="173"/>
      <point x="1100.97" y="262.934"/>
      <point x="1162.81" y="308" type="curve" smooth="yes"/>
      <point x="1170.43" y="313.554"/>
      <point x="1177.74" y="315.98"/>
      <point x="1184.59" y="315.98" type="curve" smooth="yes"/>
      <point x="1214.73" y="315.98"/>
      <point x="1236" y="268.963"/>
    </contour>
  </outline>
</glyph>
<glyph name="o.fina" format="1">
  <advance width="933"/>
  <outline>
    <contour>
      <point x="290.64" y="396" type="curve" smooth="yes"/>
      <point x="290.64" y="287"/>
      <point x="326.64" y="192"/>
      <point x="435.64" y="192" type="curve" smooth="yes"/>
      <point x="553.64" y="192"/>
      <point x="610.64" y="425"/>
      <point x="610.64" y="551" type="curve" smooth="yes"/>
      <point x="610.64" y="650"/>
      <point x="589.64" y="768"/>
      <point x="493.64" y="768" type="curve" smooth="yes"/>
      <point x="358.64" y="768"/>
      <point x="290.64" y="538"/>
    </contour>
    <contour>
      <point x="66.6396" y="437" type="curve" smooth="yes"/>
      <point x="66.6396" y="740.269"/>
      <point x="249.161" y="960.479"/>
      <point x="564.617" y="960.479" type="curve" smooth="yes"/>
      <point x="765.671" y="960.479"/>
      <point x="967.277" y="815.881"/>
      <point x="1069.64" y="616" type="curve" smooth="yes"/>
      <point x="1070.97" y="613.593"/>
      <point x="1074.25" y="612.488"/>
      <point x="1079.15" y="612.488" type="curve" smooth="yes"/>
      <point x="1107.06" y="612.488"/>
      <point x="1219.46" y="675.379"/>
      <point x="1260.4" y="696.956" type="curve" smooth="yes"/>
      <point x="1261.82" y="697.643"/>
      <point x="1263.33" y="697.977"/>
      <point x="1264.89" y="697.977" type="curve" smooth="yes"/>
      <point x="1279.15" y="697.977"/>
      <point x="1298" y="670.219"/>
      <point x="1298" y="629.656" type="curve" smooth="yes"/>
      <point x="1298" y="495.625"/>
      <point x="1146.3" y="439.116"/>
      <point x="1058.4" y="439.116" type="curve" smooth="yes"/>
      <point x="937.85" y="439.116"/>
      <point x="838" y="530"/>
      <point x="762.64" y="690" type="curve"/>
      <point x="790.048" y="645.147"/>
      <point x="802.64" y="549.941"/>
      <point x="802.64" y="503" type="curve" smooth="yes"/>
      <point x="802.64" y="246"/>
      <point x="650.64" y="0"/>
      <point x="396.64" y="0" type="curve" smooth="yes"/>
      <point x="165.64" y="0"/>
      <point x="66.6396" y="206"/>
    </contour>
  </outline>
</glyph>
<glyph name="o_o_s" format="1">
  <advance width="2374"/>
  <outline>
    <contour>
      <point x="290.64" y="396" type="curve" smooth="yes"/>
      <point x="290.64" y="287"/>
      <point x="326.64" y="192"/>
      <point x="435.64" y="192" type="curve" smooth="yes"/>
      <point x="553.64" y="192"/>
      <point x="610.64" y="425"/>
      <point x="610.64" y="551" type="curve" smooth="yes"/>
      <point x="610.64" y="650"/>
      <point x="589.64" y="768"/>
      <point x="493.64" y="768" type="curve" smooth="yes"/>
      <point x="358.64" y="768"/>
      <point x="290.64" y="538"/>
    </contour>
    <contour>
      <point x="1079.15" y="612.488" type="curve" smooth="yes"/>
      <point x="1104.19" y="612.488"/>
      <point x="1198.44" y="677.977"/>
      <point x="1234.89" y="677.977" type="curve" smooth="yes"/>
      <point x="1249.15" y="677.977"/>
      <point x="1268" y="650.219"/>
      <point x="1268" y="609.656" type="curve" smooth="yes"/>
      <point x="1268" y="489.694"/>
      <point x="1135.3" y="439.116"/>
      <point x="1058.4" y="439.116" type="curve" smooth="yes"/>
      <point x="937.85" y="439.116"/>
      <point x="890.875" y="607.301"/>
      <point x="762.64" y="690" type="curve"/>
      <point x="790.048" y="645.147"/>
      <point x="802.64" y="549.941"/>
      <point x="802.64" y="503" type="curve" smooth="yes"/>
      <point x="802.64" y="246"/>
      <point x="650.64" y="0"/>
      <point x="396.64" y="0" type="curve" smooth="yes"/>
      <point x="165.64" y="0"/>
      <point x="66.6396" y="206"/>
      <point x="66.6396" y="437" type="curve" smooth="yes"/>
      <point x="66.6396" y="740.269"/>
      <point x="249.161" y="960.479"/>
      <point x="564.617" y="960.479" type="curve" smooth="yes"/>
      <point x="765.671" y="960.479"/>
      <point x="967.277" y="815.881"/>
      <point x="1069.64" y="616" type="curve" smooth="yes"/>
      <point x="1070.97" y="613.593"/>
      <point x="1074.25" y="612.488"/>
    </contour>
    <contour>
      <point x="1702.34" y="731.03" type="curve"/>
      <point x="1931.87" y="752.369"/>
      <point x="1970" y="964.222"/>
      <point x="2130.99" y="964.222" type="curve" smooth="yes"/>
      <point x="2224.54" y="964.222"/>
      <point x="2257" y="918.187"/>
      <point x="2257" y="878" type="curve" smooth="yes"/>
      <point x="2257" y="828.512"/>
      <point x="2138.07" y="764.884"/>
      <point x="2045" y="726" type="curve"/>
      <point x="2033" y="711"/>
      <point x="2025" y="699"/>
      <point x="2024" y="692" type="curve"/>
      <point x="2037.43" y="672.242"/>
      <point x="2088.61" y="624.33"/>
      <point x="2143.55" y="559.976" type="curve"/>
      <point x="2228.18" y="598.306"/>
      <point x="2315.87" y="621"/>
      <point x="2394" y="621" type="curve" smooth="yes"/>
      <point x="2471.27" y="621"/>
      <point x="2525.73" y="544.749"/>
      <point x="2603" y="474" type="curve"/>
      <point x="2613" y="468"/>
      <point x="2617" y="458"/>
      <point x="2617" y="446" type="curve" smooth="yes"/>
      <point x="2617" y="415"/>
      <point x="2591" y="372"/>
      <point x="2576" y="372" type="curve" smooth="yes"/>
      <point x="2494.22" y="372"/>
      <point x="2443.22" y="412"/>
      <point x="2372" y="412" type="curve" smooth="yes"/>
      <point x="2331.27" y="412"/>
      <point x="2284.19" y="410.788"/>
      <point x="2235.58" y="404.989" type="curve"/>
      <point x="2252.24" y="364.313"/>
      <point x="2263" y="321.686"/>
      <point x="2263" y="279" type="curve" smooth="yes"/>
      <point x="2263" y="114"/>
      <point x="2156" y="-9"/>
      <point x="1915" y="-9" type="curve" smooth="yes"/>
      <point x="1842.58" y="-9"/>
      <point x="1751" y="36.6047"/>
      <point x="1751" y="150" type="curve" smooth="yes"/>
      <point x="1751" y="262.755"/>
      <point x="1849.59" y="378.19"/>
      <point x="1982.52" y="464.888" type="curve"/>
      <point x="1944.73" y="524.363"/>
      <point x="1903.92" y="578.362"/>
      <point x="1867" y="622" type="curve"/>
      <point x="1811.04" y="587.776"/>
      <point x="1781.81" y="567.945"/>
      <point x="1696.77" y="561.611" type="curve"/>
      <point x="1674.22" y="215.887"/>
      <point x="1530.58" y="6.69493e-05"/>
      <point x="1304" y="0" type="curve" smooth="yes"/>
      <point x="1076.1" y="0"/>
      <point x="973.412" y="179.172"/>
      <point x="973.412" y="382.706" type="curve" smooth="yes"/>
      <point x="973.412" y="650.298"/>
      <point x="1141.69" y="960"/>
      <point x="1429.75" y="960" type="curve" smooth="yes"/>
      <point x="1586.22" y="960"/>
      <point x="1670.88" y="854.535"/>
    </contour>
    <contour>
      <point x="1376" y="768" type="curve" smooth="yes"/>
      <point x="1251.02" y="768"/>
      <point x="1168" y="588"/>
      <point x="1168" y="446" type="curve" smooth="yes"/>
      <point x="1168" y="313"/>
      <point x="1211" y="192"/>
      <point x="1343" y="192" type="curve" smooth="yes"/>
      <point x="1433.02" y="192"/>
      <point x="1505.9" y="368.773"/>
      <point x="1505.9" y="536.738" type="curve" smooth="yes"/>
      <point x="1505.9" y="608.617"/>
      <point x="1506.92" y="768"/>
    </contour>
    <contour>
      <point x="1892.71" y="163.186" type="curve" smooth="yes"/>
      <point x="1892.71" y="154.087"/>
      <point x="1915.54" y="151"/>
      <point x="1924" y="151" type="curve" smooth="yes"/>
      <point x="1983" y="151"/>
      <point x="2071" y="225"/>
      <point x="2071" y="282" type="curve" smooth="yes"/>
      <point x="2071" y="305.392"/>
      <point x="2064.72" y="329.932"/>
      <point x="2054.17" y="354.55" type="curve"/>
      <point x="2001.58" y="327.979"/>
      <point x="1892.71" y="251.762"/>
    </contour>
  </outline>
</glyph>
<glyph name="p.init" format="1">
  <advance width="898"/>
  <outline>
    <contour>
      <point x="69" y="-43" type="curve" smooth="yes"/>
      <point x="69" y="40" type="line"/>
      <point x="31.3746" y="-0.803632"/>
      <point x="-108.938" y="-212.215"/>
      <point x="-108.938" y="-315.57" type="curve" smooth="yes"/>
      <point x="-108.938" y="-385.065"/>
      <point x="-84.6113" y="-424.008"/>
      <point x="-53.948" y="-424.008" type="curve" smooth="yes"/>
      <point x="-1.68041" y="-424.008"/>
      <point x="69" y="-310.858"/>
    </contour>
    <contour>
      <point x="641.889" y="-9.50397" type="curve" smooth="yes"/>
      <point x="499.03" y="-9.50397"/>
      <point x="357.472" y="24.1142"/>
      <point x="284" y="153" type="curve"/>
      <point x="283.71" y="-140.583"/>
      <point x="214.674" y="-417.314"/>
      <point x="49" y="-551" type="curve" smooth="yes"/>
      <point x="3.76204" y="-587.503"/>
      <point x="-41" y="-608"/>
      <point x="-88" y="-608" type="curve" smooth="yes"/>
      <point x="-231.559" y="-608"/>
      <point x="-289.109" y="-474.124"/>
      <point x="-289.109" y="-327.972" type="curve" smooth="yes"/>
      <point x="-289.109" y="-60.2768"/>
      <point x="-114.73" y="105.755"/>
      <point x="67.6045" y="236" type="curve"/>
      <point x="108.72" y="541.825"/>
      <point x="138.124" y="960"/>
      <point x="608" y="960" type="curve" smooth="yes"/>
      <point x="804" y="960"/>
      <point x="903" y="864"/>
      <point x="903" y="693" type="curve" smooth="yes"/>
      <point x="903" y="457.299"/>
      <point x="725" y="299.455"/>
      <point x="475" y="212" type="curve"/>
      <point x="495.993" y="159.59"/>
      <point x="537.211" y="151.594"/>
      <point x="594.482" y="151.594" type="curve" smooth="yes"/>
      <point x="801.642" y="151.594"/>
      <point x="933.746" y="355.377"/>
      <point x="1006" y="477" type="curve" smooth="yes"/>
      <point x="1013" y="488"/>
      <point x="1021" y="493"/>
      <point x="1030" y="493" type="curve" smooth="yes"/>
      <point x="1068" y="493"/>
      <point x="1114" y="402"/>
      <point x="1114" y="349" type="curve" smooth="yes"/>
      <point x="1114" y="324"/>
      <point x="1104" y="307"/>
      <point x="1093" y="289" type="curve" smooth="yes"/>
      <point x="967.037" y="75.0417"/>
      <point x="801.254" y="-9.50397"/>
    </contour>
    <contour>
      <point x="308" y="329" type="curve"/>
      <point x="487" y="384.96"/>
      <point x="708" y="505.623"/>
      <point x="708" y="677" type="curve" smooth="yes"/>
      <point x="708" y="730"/>
      <point x="671" y="774"/>
      <point x="584" y="774" type="curve" smooth="yes"/>
      <point x="360" y="774"/>
      <point x="323" y="489.919"/>
    </contour>
  </outline>
</glyph>
<glyph name="r_s" format="1">
  <advance width="1641"/>
  <outline>
    <contour>
      <point x="108" y="209" type="curve" smooth="yes"/>
      <point x="108" y="403.601"/>
      <point x="135.881" y="960"/>
      <point x="322" y="960" type="curve" smooth="yes"/>
      <point x="392" y="960"/>
      <point x="394" y="939"/>
      <point x="394" y="869" type="curve" smooth="yes"/>
      <point x="394" y="780" type="line" smooth="yes"/>
      <point x="394" y="745"/>
      <point x="395" y="710"/>
      <point x="396" y="676" type="curve"/>
      <point x="407" y="676" type="line"/>
      <point x="460" y="783"/>
      <point x="526" y="960"/>
      <point x="682" y="960" type="curve" smooth="yes"/>
      <point x="739" y="960"/>
      <point x="780" y="923"/>
      <point x="780" y="866" type="curve" smooth="yes"/>
      <point x="780" y="816"/>
      <point x="749" y="695"/>
      <point x="749" y="604" type="curve" smooth="yes"/>
      <point x="749" y="523"/>
      <point x="786" y="495"/>
      <point x="835" y="495" type="curve" smooth="yes"/>
      <point x="1029.13" y="495"/>
      <point x="1108.43" y="745.121"/>
      <point x="1174" y="864" type="curve" smooth="yes"/>
      <point x="1201.26" y="913.416"/>
      <point x="1248" y="960"/>
      <point x="1325" y="960" type="curve" smooth="yes"/>
      <point x="1422" y="960"/>
      <point x="1454" y="925"/>
      <point x="1454" y="878" type="curve" smooth="yes"/>
      <point x="1454" y="822"/>
      <point x="1408" y="750"/>
      <point x="1372" y="706" type="curve" smooth="yes"/>
      <point x="1360" y="691"/>
      <point x="1352" y="679"/>
      <point x="1351" y="672" type="curve"/>
      <point x="1361.06" y="655.235"/>
      <point x="1399.4" y="614.581"/>
      <point x="1440.55" y="559.976" type="curve"/>
      <point x="1525.18" y="598.306"/>
      <point x="1612.87" y="621"/>
      <point x="1691" y="621" type="curve" smooth="yes"/>
      <point x="1768.27" y="621"/>
      <point x="1822.73" y="544.749"/>
      <point x="1900" y="474" type="curve"/>
      <point x="1910" y="468"/>
      <point x="1914" y="458"/>
      <point x="1914" y="446" type="curve" smooth="yes"/>
      <point x="1914" y="415"/>
      <point x="1888" y="372"/>
      <point x="1873" y="372" type="curve" smooth="yes"/>
      <point x="1791.22" y="372"/>
      <point x="1740.22" y="412"/>
      <point x="1669" y="412" type="curve" smooth="yes"/>
      <point x="1628.27" y="412"/>
      <point x="1581.19" y="410.788"/>
      <point x="1532.58" y="404.989" type="curve"/>
      <point x="1549.24" y="364.313"/>
      <point x="1560" y="321.686"/>
      <point x="1560" y="279" type="curve" smooth="yes"/>
      <point x="1560" y="114"/>
      <point x="1453" y="-9"/>
      <point x="1212" y="-9" type="curve" smooth="yes"/>
      <point x="1144" y="-9"/>
      <point x="1058" y="28"/>
      <point x="1058" y="120" type="curve" smooth="yes"/>
      <point x="1058" y="243.498"/>
      <point x="1152.33" y="369.93"/>
      <point x="1279.52" y="464.888" type="curve"/>
      <point x="1254.82" y="494.079"/>
      <point x="1228.14" y="520.582"/>
      <point x="1204" y="542" type="curve"/>
      <point x="1155.82" y="470" type="line" smooth="yes"/>
      <point x="1088.42" y="369.263"/>
      <point x="921.612" y="288"/>
      <point x="798" y="288" type="curve" smooth="yes"/>
      <point x="601" y="288"/>
      <point x="565" y="460"/>
      <point x="543" y="634" type="curve"/>
      <point x="527" y="634" type="line"/>
      <point x="348" y="135" type="line" smooth="yes"/>
      <point x="327" y="77"/>
      <point x="308" y="0"/>
      <point x="235" y="0" type="curve" smooth="yes"/>
      <point x="126" y="0"/>
      <point x="108" y="100"/>
    </contour>
    <contour>
      <point x="1189.71" y="163.185" type="curve" smooth="yes"/>
      <point x="1189.71" y="154.087"/>
      <point x="1212.54" y="151"/>
      <point x="1221" y="151" type="curve" smooth="yes"/>
      <point x="1280" y="151"/>
      <point x="1368" y="225"/>
      <point x="1368" y="282" type="curve" smooth="yes"/>
      <point x="1368" y="305.392"/>
      <point x="1361.72" y="329.932"/>
      <point x="1351.17" y="354.55" type="curve"/>
      <point x="1298.58" y="327.979"/>
      <point x="1189.71" y="251.762"/>
    </contour>
  </outline>
</glyph>
